<svg display="none" xmlns="http://www.w3.org/2000/svg">

    <!-- dots -->
    <symbol id="dots" xmlns="http://www.w3.org/2000/svg" viewBox="0 0 18 16">
        <g filter="url(#filter0_d_324_1102)">
            <path d="M2.5 9.5C3.32843 9.5 4 8.82843 4 8C4 7.17157 3.32843 6.5 2.5 6.5C1.67157 6.5 1 7.17157 1 8C1 8.82843 1.67157 9.5 2.5 9.5Z" fill="white"/>
            <path d="M9 9.5C9.82843 9.5 10.5 8.82843 10.5 8C10.5 7.17157 9.82843 6.5 9 6.5C8.17157 6.5 7.5 7.17157 7.5 8C7.5 8.82843 8.17157 9.5 9 9.5Z" fill="white"/>
            <path d="M17 8C17 8.82843 16.3284 9.5 15.5 9.5C14.6716 9.5 14 8.82843 14 8C14 7.17157 14.6716 6.5 15.5 6.5C16.3284 6.5 17 7.17157 17 8Z" fill="white"/>
        </g>

    </symbol>

    <!-- file -->
    <symbol id="file" xmlns="http://www.w3.org/2000/svg" viewBox="0 0 20 17">
        <rect y="2" width="20" height="15"/>
        <rect x="13" width="7" height="4"/>
    </symbol>

    <!-- close -->
    <symbol id="close" xmlns="http://www.w3.org/2000/svg" viewBox="0 0 16 16" fill="none">
        <path fill-rule="evenodd" clip-rule="evenodd" d="M3.24322 3.26413C3.39915 3.10872 3.61054 3.02143 3.83093 3.02143C4.05132 3.02143 4.2627 3.10872 4.41864 3.26413L7.98926 6.82709L11.5599 3.26413C11.636 3.18259 11.7279 3.1172 11.8299 3.07184C11.9319 3.02649 12.042 3.0021 12.1537 3.00013C12.2653 2.99816 12.3762 3.01866 12.4798 3.0604C12.5834 3.10214 12.6774 3.16426 12.7564 3.24306C12.8354 3.32187 12.8976 3.41575 12.9394 3.51907C12.9812 3.62241 13.0019 3.73309 12.9999 3.84452C12.9979 3.95595 12.9735 4.06584 12.928 4.16764C12.8825 4.26944 12.817 4.36106 12.7353 4.43703L9.16467 7.99999L12.7353 11.563C12.817 11.639 12.8825 11.7306 12.928 11.8324C12.9735 11.9342 12.9979 12.0441 12.9999 12.1555C13.0019 12.2669 12.9812 12.3776 12.9394 12.4809C12.8976 12.5843 12.8354 12.6781 12.7564 12.7569C12.6774 12.8358 12.5834 12.8978 12.4798 12.9396C12.3762 12.9813 12.2653 13.0019 12.1537 12.9999C12.042 12.9979 11.9319 12.9735 11.8299 12.9282C11.7279 12.8828 11.636 12.8174 11.5599 12.7359L7.98926 9.17289L4.41864 12.7359C4.26098 12.8825 4.05245 12.9622 3.837 12.9585C3.62154 12.9546 3.41598 12.8675 3.26359 12.7155C3.11122 12.5635 3.02394 12.3583 3.02014 12.1433C3.01633 11.9283 3.09632 11.7203 3.24322 11.563L6.81384 7.99999L3.24322 4.43703C3.08748 4.28143 3 4.0705 3 3.85058C3 3.63066 3.08748 3.41974 3.24322 3.26413Z" fill="#08170E" fill-opacity="0.3"/>
    </symbol>


    <!-- closeSecond -->
    <symbol id="closeSecond" xmlns="http://www.w3.org/2000/svg"  viewBox="0 0 16 16" fill="none">
        <path fill-rule="evenodd" clip-rule="evenodd" d="M3.24322 3.26413C3.39915 3.10872 3.61054 3.02143 3.83093 3.02143C4.05132 3.02143 4.2627 3.10872 4.41864 3.26413L7.98926 6.82709L11.5599 3.26413C11.636 3.18259 11.7279 3.1172 11.8299 3.07184C11.9319 3.02649 12.042 3.0021 12.1537 3.00013C12.2653 2.99816 12.3762 3.01866 12.4798 3.0604C12.5834 3.10214 12.6774 3.16426 12.7564 3.24306C12.8354 3.32187 12.8976 3.41575 12.9394 3.51907C12.9812 3.62241 13.0019 3.73309 12.9999 3.84452C12.9979 3.95595 12.9735 4.06584 12.928 4.16764C12.8825 4.26944 12.817 4.36106 12.7353 4.43703L9.16467 7.99999L12.7353 11.563C12.817 11.639 12.8825 11.7306 12.928 11.8324C12.9735 11.9342 12.9979 12.0441 12.9999 12.1555C13.0019 12.2669 12.9812 12.3776 12.9394 12.4809C12.8976 12.5843 12.8354 12.6781 12.7564 12.7569C12.6774 12.8358 12.5834 12.8978 12.4798 12.9396C12.3762 12.9813 12.2653 13.0019 12.1537 12.9999C12.042 12.9979 11.9319 12.9735 11.8299 12.9282C11.7279 12.8828 11.636 12.8174 11.5599 12.7359L7.98926 9.17289L4.41864 12.7359C4.26098 12.8825 4.05245 12.9622 3.837 12.9585C3.62154 12.9546 3.41598 12.8675 3.26359 12.7155C3.11122 12.5635 3.02394 12.3583 3.02014 12.1433C3.01633 11.9283 3.09632 11.7203 3.24322 11.563L6.81384 7.99999L3.24322 4.43703C3.08748 4.28143 3 4.0705 3 3.85058C3 3.63066 3.08748 3.41974 3.24322 3.26413Z" fill="#F22A2A"/>
    </symbol>




    <!-- checkboxBefore -->
    <symbol id="checkboxBefore" xmlns="http://www.w3.org/2000/svg" viewBox="0 0 26 26">
        <rect x="1" y="1" width="24" height="24" rx="7" stroke-width="2"/>
    </symbol>

    <!-- checkboxAfter -->
    <symbol id="checkboxAfter" viewBox="0 0 26 26" fill="none" xmlns="http://www.w3.org/2000/svg">
        <rect width="26" height="26" rx="8" fill="rgb(11, 118, 54)"/>
        <path d="M20 8L10.375 18L6 13.4545" stroke="white" stroke-width="2" stroke-linecap="round" stroke-linejoin="round"/>
    </symbol>

    <!-- radioBefore -->
    <symbol id="radioBefore" xmlns="http://www.w3.org/2000/svg" viewBox="0 0 26 26">
        <rect x="1" y="1" width="24" height="24" rx="12" fill="white"/>
        <rect x="1" y="1" width="24" height="24" rx="12" stroke-width="2"/>
    </symbol>

    <!-- radioAfter -->

    <symbol id="radioAfter" xmlns="http://www.w3.org/2000/svg" viewBox="0 0 26 26" fill="none">
        <circle cx="13" cy="13" r="7" fill="rgb(11, 118, 54)"/>
        <rect x="1" y="1" width="24" height="24" rx="12" stroke="rgb(11, 118, 54)" stroke-width="2"/>
    </symbol>

    <!-- eye -->
    <symbol id="eye" xmlns="http://www.w3.org/2000/svg" viewBox="0 0 16 16">
        <path fill-rule="evenodd" clip-rule="evenodd" d="M1.67884 7.93165C2.09143 7.31094 2.9206 6.18152 4.0447 5.21477C5.17567 4.2421 6.52738 3.5 8.00001 3.5C9.47264 3.5 10.8244 4.2421 11.9553 5.21477C13.0794 6.18152 13.9086 7.31094 14.3212 7.93165C14.35 7.975 14.35 8.025 14.3212 8.06835C13.9086 8.68906 13.0794 9.81848 11.9553 10.7852C10.8244 11.7579 9.47264 12.5 8.00001 12.5C6.52738 12.5 5.17567 11.7579 4.0447 10.7852C2.9206 9.81848 2.09143 8.68906 1.67884 8.06835C1.65002 8.025 1.65002 7.975 1.67884 7.93165ZM8.00001 2C6.01865 2 4.32919 2.99167 3.06662 4.07751C1.79718 5.16926 0.880454 6.42307 0.429635 7.10129C0.0664231 7.64771 0.0664245 8.35229 0.429635 8.89871C0.880455 9.57693 1.79718 10.8307 3.06662 11.9225C4.32919 13.0083 6.01865 14 8.00001 14C9.98137 14 11.6708 13.0083 12.9334 11.9225C14.2028 10.8307 15.1196 9.57693 15.5704 8.89871C15.9336 8.35229 15.9336 7.64771 15.5704 7.10129C15.1196 6.42307 14.2028 5.16926 12.9334 4.07751C11.6708 2.99167 9.98137 2 8.00001 2ZM8 10C9.10457 10 10 9.10457 10 8C10 6.89543 9.10457 6 8 6C6.89543 6 6 6.89543 6 8C6 9.10457 6.89543 10 8 10Z"/>
    </symbol>

    <!-- search -->
    <symbol id="search" xmlns="http://www.w3.org/2000/svg" viewBox="0 0 16 16" fill="none">
        <path fill-rule="evenodd" clip-rule="evenodd" d="M11.4999 6.9999C11.4999 7.59084 11.3835 8.17601 11.1573 8.72197C10.9312 9.26794 10.5997 9.76401 10.1819 10.1819C9.76401 10.5997 9.26794 10.9312 8.72197 11.1574C8.17601 11.3835 7.59085 11.4999 6.9999 11.4999C6.40895 11.4999 5.82379 11.3835 5.27782 11.1574C4.73186 10.9312 4.23578 10.5997 3.81792 10.1819C3.40005 9.76401 3.06859 9.26794 2.84244 8.72197C2.61629 8.17601 2.4999 7.59084 2.4999 6.9999C2.4999 5.80642 2.974 4.66183 3.81792 3.81792C4.66183 2.974 5.80642 2.4999 6.9999 2.4999C8.19337 2.4999 9.33796 2.974 10.1819 3.81792C11.0258 4.66183 11.4999 5.80642 11.4999 6.9999ZM10.6799 11.7399C9.47428 12.6759 7.95727 13.1172 6.4377 12.974C4.91813 12.8309 3.51024 12.114 2.50065 10.9693C1.49105 9.82461 0.955652 8.33819 1.00343 6.81265C1.05122 5.2871 1.6786 3.8371 2.75785 2.75785C3.83711 1.6786 5.2871 1.05122 6.81265 1.00343C8.3382 0.955649 9.82461 1.49105 10.9693 2.50065C12.114 3.51024 12.8309 4.91813 12.974 6.4377C13.1172 7.95726 12.6759 9.47427 11.7399 10.6799L14.7799 13.7199C14.8536 13.7886 14.9127 13.8714 14.9537 13.9634C14.9947 14.0554 15.0167 14.1547 15.0185 14.2554C15.0203 14.3561 15.0017 14.4561 14.964 14.5495C14.9263 14.6429 14.8701 14.7277 14.7989 14.7989C14.7277 14.8702 14.6429 14.9263 14.5495 14.964C14.4561 15.0017 14.3561 15.0203 14.2554 15.0185C14.1547 15.0167 14.0553 14.9947 13.9634 14.9537C13.8714 14.9127 13.7886 14.8536 13.7199 14.7799L10.6799 11.7399Z" fill="#08170E" fill-opacity="0.4"/>
    </symbol>


    <!-- arrowBottom -->
    <symbol id="arrowBottom" xmlns="http://www.w3.org/2000/svg" viewBox="0 0 20 20" fill="none">
        <path d="M4 7L10 13L16 7" stroke="white" stroke-width="2" stroke-linecap="round" stroke-linejoin="round"/>
    </symbol>

    <!-- arrowLeft -->
    <symbol id="arrowLeft" xmlns="http://www.w3.org/2000/svg" viewBox="0 0 16 16" fill="none">
        <path fill-rule="evenodd" clip-rule="evenodd" d="M7.78033 12.5303C7.48744 12.8232 7.01256 12.8232 6.71967 12.5303L2.46967 8.28033C2.17678 7.98744 2.17678 7.51256 2.46967 7.21967L6.71967 2.96967C7.01256 2.67678 7.48744 2.67678 7.78033 2.96967C8.07322 3.26256 8.07322 3.73744 7.78033 4.03033L4.81066 7H12.25C12.6642 7 13 7.33579 13 7.75C13 8.16421 12.6642 8.5 12.25 8.5H4.81066L7.78033 11.4697C8.07322 11.7626 8.07322 12.2374 7.78033 12.5303Z" fill="#0B7636"/>
    </symbol>

    <!-- arrowRight -->
    <symbol id="arrowRight" xmlns="http://www.w3.org/2000/svg" viewBox="0 0 8 6" fill="none">
        <path d="M0.98 5.998V5.13L6.706 2.876V3.324L0.98 1.07V0.201999L7.07 2.638V3.562L0.98 5.998Z" fill="#08170E" fill-opacity="0.4"/>
    </symbol>

    <!-- favorite -->
    <symbol id="favorite" xmlns="http://www.w3.org/2000/svg" viewBox="0 0 16 16">
        <path fill-rule="evenodd" clip-rule="evenodd" d="M4.75 2.5C4.61193 2.5 4.5 2.61193 4.5 2.75V12.6608L7.52322 10.1711C7.80016 9.94298 8.19984 9.94298 8.47678 10.1711L11.5 12.6608V2.75C11.5 2.61193 11.3881 2.5 11.25 2.5H4.75ZM3 2.75C3 1.7835 3.7835 1 4.75 1H11.25C12.2165 1 13 1.7835 13 2.75V14.25C13 14.5402 12.8326 14.8044 12.5701 14.9283C12.3076 15.0521 11.9973 15.0134 11.7732 14.8289L8 11.7216L4.22678 14.8289C4.00275 15.0134 3.69238 15.0521 3.42991 14.9283C3.16744 14.8044 3 14.5402 3 14.25V2.75Z"/>
    </symbol>




    <!-- tooltips_01 -->
    <symbol id="tooltips_01" xmlns="http://www.w3.org/2000/svg" viewBox="0 0 16 16">
        <path fill-rule="evenodd" clip-rule="evenodd"
              d="M1.67884 7.93165C2.09143 7.31094 2.9206 6.18152 4.0447 5.21477C5.17567 4.2421 6.52738 3.5 8.00001 3.5C9.47264 3.5 10.8244 4.2421 11.9553 5.21477C13.0794 6.18152 13.9086 7.31094 14.3212 7.93165C14.35 7.975 14.35 8.025 14.3212 8.06835C13.9086 8.68906 13.0794 9.81848 11.9553 10.7852C10.8244 11.7579 9.47264 12.5 8.00001 12.5C6.52738 12.5 5.17567 11.7579 4.0447 10.7852C2.9206 9.81848 2.09143 8.68906 1.67884 8.06835C1.65002 8.025 1.65002 7.975 1.67884 7.93165ZM8.00001 2C6.01865 2 4.32919 2.99167 3.06662 4.07751C1.79718 5.16926 0.880454 6.42307 0.429635 7.10129C0.0664231 7.64771 0.0664245 8.35229 0.429635 8.89871C0.880455 9.57693 1.79718 10.8307 3.06662 11.9225C4.32919 13.0083 6.01865 14 8.00001 14C9.98137 14 11.6708 13.0083 12.9334 11.9225C14.2028 10.8307 15.1196 9.57693 15.5704 8.89871C15.9336 8.35229 15.9336 7.64771 15.5704 7.10129C15.1196 6.42307 14.2028 5.16926 12.9334 4.07751C11.6708 2.99167 9.98137 2 8.00001 2ZM8 10C9.10457 10 10 9.10457 10 8C10 6.89543 9.10457 6 8 6C6.89543 6 6 6.89543 6 8C6 9.10457 6.89543 10 8 10Z"/>
    </symbol>

    <!-- tooltips_02 -->
    <symbol id="tooltips_02" xmlns="http://www.w3.org/2000/svg" viewBox="0 0 16 16" fill="none">
        <g clip-path="url(#clip0_324_1774)">
            <path fill-rule="evenodd" clip-rule="evenodd"
                  d="M8.83376 0.0660893C7.49433 -0.086555 6.49998 1.04788 6.49997 2.24905V2.74964C6.49997 4.07792 5.85325 4.87266 5.18247 5.36285C4.85424 5.60271 4.52215 5.76632 4.26392 5.87138C3.96086 5.35017 3.39635 4.99976 2.75 4.99976H1.75C0.783502 4.99976 0 5.78326 0 6.74976V14.2498C0 15.2163 0.783501 15.9998 1.75 15.9998H2.75C3.5247 15.9998 4.18183 15.4964 4.41213 14.7988C4.93662 14.8737 5.47944 15.0275 6.13735 15.2138L6.13754 15.2139C6.28911 15.2568 6.44678 15.3015 6.61175 15.3473C7.76571 15.6678 9.15259 15.9996 11 15.9996C12.7057 15.9996 13.9696 15.8473 14.7215 14.8604C15.0746 14.3971 15.2585 13.8184 15.3903 13.1883C15.5076 12.6274 15.5981 11.9446 15.7028 11.1548L15.7434 10.8488C15.9925 8.98041 16.0084 7.53084 15.5548 6.53301C15.3108 5.99639 14.9328 5.5904 14.4183 5.33287C13.924 5.08545 13.3531 4.99964 12.75 4.99964H11.3277L11.3427 4.8873V4.88729C11.4124 4.36906 11.5 3.71789 11.5 3.24964C11.5 2.3281 11.3487 1.53102 10.8444 0.950213C10.3331 0.36121 9.5972 0.153092 8.83376 0.0660893ZM4.5 13.2985C5.20532 13.387 5.89055 13.5826 6.5721 13.7772H6.57211C6.71926 13.8192 6.86624 13.8612 7.01322 13.902C8.10925 14.2065 9.34735 14.4996 11 14.4996C12.7942 14.4996 13.2803 14.277 13.5284 13.9514C13.6753 13.7585 13.8039 13.4465 13.9221 12.8813C14.0272 12.3789 14.1096 11.7572 14.2166 10.9513L14.2565 10.6505C14.5075 8.76887 14.446 7.71845 14.1893 7.15378C14.078 6.90914 13.9348 6.76826 13.7469 6.67423C13.5388 6.57008 13.2263 6.49964 12.75 6.49964H10.9996C10.3144 6.49964 9.70502 5.92267 9.79443 5.16372C9.81697 4.97238 9.84349 4.77474 9.86985 4.57828C9.9354 4.08983 9.99997 3.60865 9.99997 3.24964C9.99997 2.44105 9.85561 2.09928 9.71177 1.9336C9.57504 1.77611 9.31035 1.63011 8.66392 1.55644C8.35722 1.52149 7.99997 1.79346 7.99997 2.24906V2.74964C7.99997 4.67136 7.02171 5.87662 6.0675 6.57393C5.59744 6.91744 5.1316 7.14082 4.78481 7.27864C4.67882 7.32077 4.58288 7.35533 4.5 7.38318V13.2985ZM2.75 6.49976C2.88807 6.49976 3 6.61168 3 6.74976V13.9996V14.2498C3 14.3878 2.88807 14.4998 2.75 14.4998H1.75C1.61193 14.4998 1.5 14.3878 1.5 14.2498V6.74976C1.5 6.61168 1.61193 6.49976 1.75 6.49976H2.75Z"
                  fill="#08170E" fill-opacity="0.3"/>
        </g>
        <defs>
            <clipPath id="clip0_324_1774">
                <rect width="16" height="16" fill="white"/>
            </clipPath>
        </defs>
    </symbol>

    <!-- tooltips_03 -->
    <symbol id="tooltips_03" xmlns="http://www.w3.org/2000/svg" viewBox="0 0 16 15" fill="none">
        <mask id="path-1-inside-1_366_9302" fill="white">
            <path fill-rule="evenodd" clip-rule="evenodd" d="M3 0C1.34315 0 0 1.34315 0 3V9C0 10.6569 1.34315 12 3 12L3 13.9661C3 14.4268 3.49769 14.7156 3.89768 14.487L8.25 12H13C14.6569 12 16 10.6569 16 9V3C16 1.34315 14.6569 0 13 0H3Z"/>
        </mask>
        <path d="M3 12L4.6 12L4.6 10.4H3V12ZM3 13.9661L4.6 13.9661V13.9661L3 13.9661ZM3.89768 14.487L4.69151 15.8762L3.89768 14.487ZM8.25 12V10.4H7.8251L7.45618 10.6108L8.25 12ZM1.6 3C1.6 2.2268 2.2268 1.6 3 1.6V-1.6C0.45949 -1.6 -1.6 0.45949 -1.6 3H1.6ZM1.6 9V3H-1.6V9H1.6ZM3 10.4C2.2268 10.4 1.6 9.7732 1.6 9H-1.6C-1.6 11.5405 0.45949 13.6 3 13.6V10.4ZM4.6 13.9661L4.6 12L1.4 12L1.4 13.9661L4.6 13.9661ZM3.10386 13.0978C3.77052 12.7169 4.6 13.1983 4.6 13.9661L1.4 13.9661C1.4 15.6553 3.22486 16.7143 4.69151 15.8762L3.10386 13.0978ZM7.45618 10.6108L3.10386 13.0978L4.69151 15.8762L9.04382 13.3892L7.45618 10.6108ZM13 10.4H8.25V13.6H13V10.4ZM14.4 9C14.4 9.7732 13.7732 10.4 13 10.4V13.6C15.5405 13.6 17.6 11.5405 17.6 9H14.4ZM14.4 3V9H17.6V3H14.4ZM13 1.6C13.7732 1.6 14.4 2.2268 14.4 3H17.6C17.6 0.45949 15.5405 -1.6 13 -1.6V1.6ZM3 1.6H13V-1.6H3V1.6Z" fill="#08170E" fill-opacity="0.3" mask="url(#path-1-inside-1_366_9302)"/>
    </symbol>

    <!-- tooltips_04 -->
    <symbol id="tooltips_04" xmlns="http://www.w3.org/2000/svg" viewBox="0 0 16 16" fill="none">
        <path fill-rule="evenodd" clip-rule="evenodd"
              d="M1.5 8C1.5 6.27609 2.18482 4.62279 3.40381 3.40381C4.62279 2.18482 6.27609 1.5 8 1.5C9.72391 1.5 11.3772 2.18482 12.5962 3.40381C13.8152 4.62279 14.5 6.27609 14.5 8C14.5 9.72391 13.8152 11.3772 12.5962 12.5962C11.3772 13.8152 9.72391 14.5 8 14.5C6.27609 14.5 4.62279 13.8152 3.40381 12.5962C2.18482 11.3772 1.5 9.72391 1.5 8ZM8 0C5.87827 0 3.84344 0.842855 2.34315 2.34315C0.842855 3.84344 0 5.87827 0 8C0 10.1217 0.842855 12.1566 2.34315 13.6569C3.84344 15.1571 5.87827 16 8 16C10.1217 16 12.1566 15.1571 13.6569 13.6569C15.1571 12.1566 16 10.1217 16 8C16 5.87827 15.1571 3.84344 13.6569 2.34315C12.1566 0.842855 10.1217 0 8 0ZM8.5 4.75C8.5 4.55109 8.42098 4.36032 8.28033 4.21967C8.13968 4.07902 7.94891 4 7.75 4C7.55109 4 7.36032 4.07902 7.21967 4.21967C7.07902 4.36032 7 4.55109 7 4.75V8.25C7.00003 8.39978 7.04492 8.54612 7.12886 8.67017C7.21281 8.79421 7.33197 8.89028 7.471 8.946L9.971 9.946C10.1541 10.0129 10.3561 10.0058 10.5341 9.92633C10.7121 9.84684 10.8522 9.70115 10.9246 9.52014C10.997 9.33914 10.9961 9.13705 10.9221 8.95669C10.8481 8.77634 10.7067 8.63191 10.528 8.554L8.5 7.742V4.75Z"
              fill="#08170E" fill-opacity="0.3"/>
    </symbol>


    <!-- tooltips_05 -->
    <symbol id="tooltips_05" xmlns="http://www.w3.org/2000/svg" viewBox="0 0 16 16" fill="none">
        <g clip-path="url(#clip0_2_5830)">
            <path fill-rule="evenodd" clip-rule="evenodd" d="M7.99992 0.900025C8.13994 0.899935 8.27718 0.939039 8.39612 1.01291C8.51506 1.08678 8.61094 1.19248 8.67292 1.31802L10.5549 5.13302L14.7649 5.74502C14.9034 5.76513 15.0335 5.82357 15.1404 5.91374C15.2474 6.0039 15.3271 6.1222 15.3703 6.25525C15.4136 6.38831 15.4188 6.53082 15.3853 6.66667C15.3519 6.80252 15.2811 6.9263 15.1809 7.02402L12.1349 9.99402L12.8539 14.186C12.8776 14.3239 12.8623 14.4657 12.8096 14.5954C12.7569 14.7251 12.669 14.8374 12.5558 14.9197C12.4426 15.002 12.3086 15.051 12.169 15.0611C12.0294 15.0712 11.8898 15.0421 11.7659 14.977L7.99992 12.997L4.23392 14.977C4.11011 15.042 3.97059 15.0711 3.83111 15.061C3.69164 15.0509 3.55776 15.002 3.4446 14.9199C3.33145 14.8377 3.24351 14.7255 3.19074 14.596C3.13796 14.4665 3.12243 14.3249 3.14592 14.187L3.86592 9.99302L0.81792 7.02402C0.717486 6.92634 0.646419 6.80249 0.612772 6.66649C0.579124 6.53049 0.584242 6.38779 0.627544 6.25455C0.670847 6.12131 0.750603 6.00286 0.857776 5.91263C0.964948 5.8224 1.09525 5.76399 1.23392 5.74402L5.44392 5.13302L7.32692 1.31802C7.3889 1.19248 7.48479 1.08678 7.60373 1.01291C7.72267 0.939039 7.85991 0.899935 7.99992 0.900025ZM7.99992 3.34502L6.61492 6.15002C6.56114 6.25892 6.48171 6.35313 6.38347 6.42455C6.28522 6.49597 6.1711 6.54246 6.05092 6.56002L2.95392 7.01002L5.19392 9.19402C5.28107 9.27888 5.34628 9.38367 5.38391 9.49935C5.42154 9.61503 5.43047 9.73812 5.40992 9.85802L4.88192 12.942L7.65092 11.486C7.75855 11.4294 7.87833 11.3999 7.99992 11.3999C8.12152 11.3999 8.24129 11.4294 8.34892 11.486L11.1189 12.942L10.5889 9.85802C10.5684 9.73812 10.5773 9.61503 10.6149 9.49935C10.6526 9.38367 10.7178 9.27888 10.8049 9.19402L13.0449 7.01102L9.94892 6.56102C9.82874 6.54346 9.71462 6.49697 9.61638 6.42555C9.51813 6.35413 9.43871 6.25992 9.38492 6.15102L7.99992 3.34502Z" fill="#08170E"/>
        </g>
        <defs>
            <clipPath id="clip0_2_5830">
                <rect width="16" height="16" fill="white"/>
            </clipPath>
        </defs>
    </symbol>

    <!-- tooltips_06 -->
    <symbol id="tooltips_06" xmlns="http://www.w3.org/2000/svg" viewBox="0 0 16 16" fill="none">
        <path fill-rule="evenodd" clip-rule="evenodd" d="M11.9999 1.33337C12.3899 1.33337 12.6967 1.66672 12.6643 2.0554L12.6133 2.66671H13.9999C14.3681 2.66671 14.6666 2.96518 14.6666 3.33337V6.00004C14.6666 7.46607 13.4836 8.65579 12.0201 8.66663C11.6988 9.85382 10.9941 10.9128 9.99992 11.6755L9.99925 13.3334H12.6666C13.0348 13.3334 13.3333 13.6319 13.3333 14C13.3333 14.3682 13.0348 14.6667 12.6666 14.6667H3.33325C2.96506 14.6667 2.66659 14.3682 2.66659 14C2.66659 13.6319 2.96506 13.3334 3.33325 13.3334H5.99925L5.99992 11.676L5.84455 11.5529C4.9353 10.806 4.28488 9.79532 3.97927 8.66661C2.56135 8.65548 1.40742 7.53885 1.33669 6.13661L1.33325 6.00004V3.33337C1.33325 2.99148 1.59061 2.7097 1.92217 2.67119L1.99992 2.66671H3.38592L3.33555 2.0554C3.30316 1.66672 3.60989 1.33337 3.99992 1.33337H11.9999ZM11.2754 2.66671H4.72445L5.13133 7.54928C5.24056 8.85996 5.94205 10.0491 7.03639 10.7787C7.22185 10.9023 7.33325 11.1105 7.33325 11.3334V13.3334H8.66659V11.3334C8.66659 11.115 8.77358 10.9104 8.95299 10.7858L9.09822 10.6851C10.1168 9.94869 10.764 8.80343 10.8685 7.54928L11.2754 2.66671ZM3.49725 4.00004H2.66659V6.00004C2.66659 6.65941 3.14521 7.20699 3.77399 7.31431L3.49725 4.00004ZM13.3333 6.00004V4.00004H12.5019L12.2258 7.31431C12.8546 7.20699 13.3333 6.65941 13.3333 6.00004Z" fill="#08170E"/>
    </symbol>
    <!-- marker -->
    <symbol id="marker" xmlns="http://www.w3.org/2000/svg" class="svg-icon" viewBox="0 0 1025 1024">
        <path d="M51.196068 1024c-13.021992 0-26.0184-5.091113-36.021541-15.094254-18.113104-18.164271-20.262117-46.050265-5.091113-66.337966l213.059228-288.325828-166.983379-166.983379C39.862586 470.961896 36.639068 445.48075 48.305135 425.2698c7.982046-12.612656 76.699275-112.82315 229.483822-75.010766 2.532765 0.307002 5.270197 0.537253 8.212297 0.793088 6.267953 0.537253 13.277827 1.17684 20.87612 2.404847 32.33752 5.244614 89.516599-20.722619 139.148552-63.037697 47.559691-40.49865 78.285451-87.751339 78.285451-120.344693 0-7.57271-0.179084-15.631507-0.358169-23.536802-1.279174-30.623426-3.223519-77.697031 31.979351-112.874317 41.649907-41.701074 107.552953-45.05251 153.270633-7.854129 0.921005 0.741921 1.76526 1.535009 2.583932 2.379264l-0.025583 0c24.585725 24.048472 276.608594 275.815506 279.243692 278.476188 21.694792 21.694792 33.642277 50.527374 33.693444 81.176384 0.025583 30.674593-11.896319 59.456009-33.539943 81.099634-35.023785 35.049369-82.353225 33.053857-113.565071 31.723516-7.393626-0.153501-15.478006-0.332585-23.025133-0.332585-30.828094 0-67.69389 21.592458-103.715431 60.760767-50.808793 55.260318-82.09739 126.63823-79.411124 158.617581 1.125673 10.258976 3.223519 28.37208 3.607271 30.930428 36.891379 149.612195-63.114447 217.843339-74.627013 225.109047-20.697036 12.484739-46.357267 9.389137-63.012113-7.240125l-178.393611-178.393611c-10.003141-10.003141-10.003141-26.171901 0-36.175042s26.171901-10.003141 36.175042 0l178.393611 178.393611c7.854129-5.091113 80.101878-54.646315 51.320462-171.76749-0.51167-2.35368-3.044434-23.562386-4.374775-35.970374-4.298025-51.115795 35.586622-136.027367 92.688951-198.118475 32.439854-35.254036 83.27423-77.287695 141.348731-77.287695 7.905296 0 16.399011 0.179084 24.662475 0.358169 32.41427 1.355924 58.048918 0.972172 75.77827-16.782763 11.973069-11.973069 18.548024-27.885994 18.548024-44.847842-0.025583-17.013015-6.677288-33.00269-18.701524-45.05251C952.220677 340.23031 683.849964 72.243349 675.944668 64.645055c-24.278723-19.724864-60.7096-17.882853-83.785899 5.21903-17.908437 17.908437-18.317772 43.491917-17.013015 75.087516 0.204668 8.800717 0.383752 17.243266 0.383752 25.148562 0 48.378362-35.995957 107.936705-96.270638 159.282751-49.478452 42.135993-122.979792 83.811483-180.491457 74.60143-6.293536-1.023339-12.049819-1.509425-17.192099-1.944345-3.325852-0.281418-6.421454-0.562837-9.312387-0.921005-2.456014-0.07675-4.860861-0.537253-7.188958-1.304758-117.760762-29.037251-167.597382 43.44075-172.893163 51.806549l182.742803 182.026466c8.954218 8.954218 10.028724 23.101883 2.481598 33.309692L51.170485 973.114457l238.617125-174.530506c11.435816-8.365798 27.425491-5.80745 35.740123 5.602782s5.80745 27.399908-5.602782 35.714539l-238.821793 174.12117C72.148939 1020.699731 61.685295 1024 51.196068 1024z"/>
    </symbol>

    <!-- socials_01 -->
    <symbol id="socials_01" xmlns="http://www.w3.org/2000/svg" viewBox="0 0 16 16" fill="none">
        <path fill-rule="evenodd" clip-rule="evenodd" d="M16 7.99988C16 12.4182 12.4183 15.9999 8 15.9999C3.58172 15.9999 0 12.4182 0 7.99988C0 3.5816 3.58172 -0.00012207 8 -0.00012207C12.4183 -0.00012207 16 3.5816 16 7.99988ZM8.31474 5.63935C7.43797 6.00654 5.69192 6.76341 3.06911 7.90246C2.64946 8.07482 2.42465 8.23968 2.40217 8.40454C2.36898 8.68331 2.71791 8.79159 3.18861 8.93766C3.24935 8.95651 3.31212 8.97599 3.37635 8.99655C3.84097 9.14642 4.45545 9.31878 4.77769 9.32627C5.06994 9.33377 5.39217 9.21387 5.75187 8.96657C8.20233 7.31045 9.46128 6.47115 9.54371 6.45616C9.60366 6.44118 9.6786 6.42619 9.73106 6.47115C9.78351 6.51611 9.78351 6.60604 9.77602 6.62852C9.74027 6.77749 8.27837 8.13465 7.61312 8.75224C7.44173 8.91135 7.32322 9.02137 7.29559 9.049C7.22531 9.12135 7.15374 9.18985 7.08492 9.25572C6.65478 9.66744 6.33199 9.97641 7.10075 10.4803C7.45024 10.711 7.73213 10.9034 8.00972 11.0928C8.3452 11.3216 8.67441 11.5462 9.10908 11.8292C9.21148 11.8964 9.30952 11.9662 9.40517 12.0342C9.77847 12.2998 10.1153 12.5394 10.5329 12.5036C10.7727 12.4811 11.02 12.2563 11.1474 11.5819C11.4471 9.99322 12.0316 6.5386 12.1665 5.11478C12.1815 4.99488 12.1665 4.83751 12.1515 4.76258C12.1366 4.68764 12.1141 4.59022 12.0241 4.51528C11.9117 4.42536 11.7469 4.41037 11.6719 4.41037C11.3347 4.41786 10.8102 4.59771 8.31474 5.63935Z" fill="white"/>
    </symbol>
    <!-- socials_02 -->
    <symbol id="socials_02" xmlns="http://www.w3.org/2000/svg" viewBox="0 0 50 50"><path d="M 25 2 C 12.309534 2 2 12.309534 2 25 C 2 29.079097 3.1186875 32.88588 4.984375 36.208984 L 2.0371094 46.730469 A 1.0001 1.0001 0 0 0 3.2402344 47.970703 L 14.210938 45.251953 C 17.434629 46.972929 21.092591 48 25 48 C 37.690466 48 48 37.690466 48 25 C 48 12.309534 37.690466 2 25 2 z M 25 4 C 36.609534 4 46 13.390466 46 25 C 46 36.609534 36.609534 46 25 46 C 21.278025 46 17.792121 45.029635 14.761719 43.333984 A 1.0001 1.0001 0 0 0 14.033203 43.236328 L 4.4257812 45.617188 L 7.0019531 36.425781 A 1.0001 1.0001 0 0 0 6.9023438 35.646484 C 5.0606869 32.523592 4 28.890107 4 25 C 4 13.390466 13.390466 4 25 4 z M 16.642578 13 C 16.001539 13 15.086045 13.23849 14.333984 14.048828 C 13.882268 14.535548 12 16.369511 12 19.59375 C 12 22.955271 14.331391 25.855848 14.613281 26.228516 L 14.615234 26.228516 L 14.615234 26.230469 C 14.588494 26.195329 14.973031 26.752191 15.486328 27.419922 C 15.999626 28.087653 16.717405 28.96464 17.619141 29.914062 C 19.422612 31.812909 21.958282 34.007419 25.105469 35.349609 C 26.554789 35.966779 27.698179 36.339417 28.564453 36.611328 C 30.169845 37.115426 31.632073 37.038799 32.730469 36.876953 C 33.55263 36.755876 34.456878 36.361114 35.351562 35.794922 C 36.246248 35.22873 37.12309 34.524722 37.509766 33.455078 C 37.786772 32.688244 37.927591 31.979598 37.978516 31.396484 C 38.003976 31.104927 38.007211 30.847602 37.988281 30.609375 C 37.969311 30.371148 37.989581 30.188664 37.767578 29.824219 C 37.302009 29.059804 36.774753 29.039853 36.224609 28.767578 C 35.918939 28.616297 35.048661 28.191329 34.175781 27.775391 C 33.303883 27.35992 32.54892 26.991953 32.083984 26.826172 C 31.790239 26.720488 31.431556 26.568352 30.914062 26.626953 C 30.396569 26.685553 29.88546 27.058933 29.587891 27.5 C 29.305837 27.918069 28.170387 29.258349 27.824219 29.652344 C 27.819619 29.649544 27.849659 29.663383 27.712891 29.595703 C 27.284761 29.383815 26.761157 29.203652 25.986328 28.794922 C 25.2115 28.386192 24.242255 27.782635 23.181641 26.847656 L 23.181641 26.845703 C 21.603029 25.455949 20.497272 23.711106 20.148438 23.125 C 20.171937 23.09704 20.145643 23.130901 20.195312 23.082031 L 20.197266 23.080078 C 20.553781 22.728924 20.869739 22.309521 21.136719 22.001953 C 21.515257 21.565866 21.68231 21.181437 21.863281 20.822266 C 22.223954 20.10644 22.02313 19.318742 21.814453 18.904297 L 21.814453 18.902344 C 21.828863 18.931014 21.701572 18.650157 21.564453 18.326172 C 21.426943 18.001263 21.251663 17.580039 21.064453 17.130859 C 20.690033 16.232501 20.272027 15.224912 20.023438 14.634766 L 20.023438 14.632812 C 19.730591 13.937684 19.334395 13.436908 18.816406 13.195312 C 18.298417 12.953717 17.840778 13.022402 17.822266 13.021484 L 17.820312 13.021484 C 17.450668 13.004432 17.045038 13 16.642578 13 z M 16.642578 15 C 17.028118 15 17.408214 15.004701 17.726562 15.019531 C 18.054056 15.035851 18.033687 15.037192 17.970703 15.007812 C 17.906713 14.977972 17.993533 14.968282 18.179688 15.410156 C 18.423098 15.98801 18.84317 16.999249 19.21875 17.900391 C 19.40654 18.350961 19.582292 18.773816 19.722656 19.105469 C 19.863021 19.437122 19.939077 19.622295 20.027344 19.798828 L 20.027344 19.800781 L 20.029297 19.802734 C 20.115837 19.973483 20.108185 19.864164 20.078125 19.923828 C 19.867096 20.342656 19.838461 20.445493 19.625 20.691406 C 19.29998 21.065838 18.968453 21.483404 18.792969 21.65625 C 18.639439 21.80707 18.36242 22.042032 18.189453 22.501953 C 18.016221 22.962578 18.097073 23.59457 18.375 24.066406 C 18.745032 24.6946 19.964406 26.679307 21.859375 28.347656 C 23.05276 29.399678 24.164563 30.095933 25.052734 30.564453 C 25.940906 31.032973 26.664301 31.306607 26.826172 31.386719 C 27.210549 31.576953 27.630655 31.72467 28.119141 31.666016 C 28.607627 31.607366 29.02878 31.310979 29.296875 31.007812 L 29.298828 31.005859 C 29.655629 30.601347 30.715848 29.390728 31.224609 28.644531 C 31.246169 28.652131 31.239109 28.646231 31.408203 28.707031 L 31.408203 28.708984 L 31.410156 28.708984 C 31.487356 28.736474 32.454286 29.169267 33.316406 29.580078 C 34.178526 29.990889 35.053561 30.417875 35.337891 30.558594 C 35.748225 30.761674 35.942113 30.893881 35.992188 30.894531 C 35.995572 30.982516 35.998992 31.07786 35.986328 31.222656 C 35.951258 31.624292 35.8439 32.180225 35.628906 32.775391 C 35.523582 33.066746 34.975018 33.667661 34.283203 34.105469 C 33.591388 34.543277 32.749338 34.852514 32.4375 34.898438 C 31.499896 35.036591 30.386672 35.087027 29.164062 34.703125 C 28.316336 34.437036 27.259305 34.092596 25.890625 33.509766 C 23.114812 32.325956 20.755591 30.311513 19.070312 28.537109 C 18.227674 27.649908 17.552562 26.824019 17.072266 26.199219 C 16.592866 25.575584 16.383528 25.251054 16.208984 25.021484 L 16.207031 25.019531 C 15.897202 24.609805 14 21.970851 14 19.59375 C 14 17.077989 15.168497 16.091436 15.800781 15.410156 C 16.132721 15.052495 16.495617 15 16.642578 15 z"/>
    </symbol>
    <!-- socials_03 -->
    <symbol id="socials_03" xmlns="http://www.w3.org/2000/svg" viewBox="0 0 16 10" fill="none">
        <path d="M15.0563 1.27988C15.0846 1.18653 15.0981 1.09999 15.0944 1.02272C15.0852 0.798934 14.9324 0.636353 14.5728 0.636353H12.9663C12.5607 0.636353 12.3736 0.883626 12.2643 1.13152C12.2643 1.13152 11.2629 3.20799 10.1087 4.57726C9.73434 4.97352 9.54412 4.96363 9.34162 4.96363C9.23301 4.96363 8.95871 4.83133 8.95871 4.46846V1.26319C8.95871 0.834171 8.85256 0.636353 8.50954 0.636353H5.65678C5.40703 0.636353 5.27695 0.834171 5.27695 1.03261C5.27695 1.44493 5.82798 1.54384 5.89057 2.69923V4.9389C5.89057 5.4829 5.79669 5.58181 5.59419 5.58181C5.04806 5.58181 3.97299 3.72726 3.2532 1.29657C3.09734 0.818098 2.94148 0.636353 2.53587 0.636353H0.914049C0.445851 0.636353 0.36792 0.867553 0.36792 1.11483C0.36792 1.56053 0.736097 3.97021 2.74573 6.7409C4.2031 8.74999 6.12314 9.90908 7.82289 9.90908C8.85256 9.90908 8.9581 9.64512 8.9581 9.23279V7.39555C8.95872 6.90039 9.07101 6.81817 9.39869 6.81817C9.63248 6.81817 10.1093 6.97272 11.0297 8.05453C12.0913 9.30202 12.284 9.90908 12.8927 9.90908H14.4992C14.8722 9.90908 15.0864 9.75144 15.095 9.44544C15.0968 9.36755 15.0858 9.28039 15.0606 9.18333C14.9416 8.82726 14.3955 7.95686 13.7143 7.12726C13.337 6.66795 12.9645 6.21297 12.7933 5.9657C12.6785 5.80435 12.635 5.69061 12.6405 5.58181C12.646 5.46744 12.7049 5.35864 12.7933 5.20657C12.7773 5.20657 14.8538 2.26959 15.0563 1.27988Z" fill="white"/>
    </symbol>
    <!-- socials_04 -->
    <symbol id="socials_04" xmlns="http://www.w3.org/2000/svg" viewBox="0 0 14 14" fill="none">
        <path fill-rule="evenodd" clip-rule="evenodd" d="M12.6268 1.37312C12.892 1.63068 13.0961 1.94446 13.224 2.29113C13.3335 2.57245 13.4635 2.99529 13.499 3.7737C13.5374 4.61554 13.5454 4.86801 13.5454 7C13.5454 9.13177 13.5374 9.38424 13.499 10.2263C13.4633 11.0047 13.3333 11.4273 13.224 11.7087C12.9554 12.405 12.4051 12.9553 11.7088 13.2239C11.4275 13.3334 11.0046 13.4634 10.2262 13.4989C9.38458 13.5373 9.13211 13.5453 6.99991 13.5453C4.86792 13.5453 4.61567 13.5373 3.77382 13.4989C2.99541 13.4634 2.57257 13.3334 2.29125 13.2239C1.94437 13.096 1.6308 12.8919 1.37324 12.6267C1.10804 12.3691 0.904155 12.0555 0.776011 11.7087C0.666749 11.4273 0.536695 11.0047 0.501265 10.2263C0.462864 9.38424 0.45459 9.13177 0.45459 7C0.45459 4.86801 0.462864 4.61554 0.501265 3.7737C0.536695 2.99529 0.666749 2.57245 0.776011 2.29113C0.904155 1.94425 1.10825 1.63068 1.37345 1.37312C1.6308 1.10792 1.94458 0.903821 2.29146 0.775889C2.57257 0.666627 2.99541 0.536573 3.77382 0.500931C4.61567 0.46253 4.86814 0.454468 7.00012 0.454468C9.1319 0.454468 9.38437 0.462742 10.2264 0.501143C11.0048 0.536573 11.4275 0.666627 11.7088 0.775889C12.0557 0.903821 12.3692 1.10792 12.6268 1.37312ZM2.90015 6.99979C2.90015 9.26416 4.73575 11.0996 7.00012 11.0996C9.26428 11.0996 11.0999 9.26416 11.0999 6.99979C11.0999 4.73541 9.26428 2.90003 7.00012 2.90003C4.73575 2.90003 2.90015 4.73541 2.90015 6.99979ZM10.3039 2.73794C10.3039 3.26706 10.7328 3.69605 11.262 3.69605C11.7911 3.69605 12.2199 3.26706 12.2201 2.73794C12.2201 2.20881 11.7911 1.77983 11.262 1.77983C10.7328 1.77983 10.3039 2.20881 10.3039 2.73794ZM7.00009 9.66098C8.46993 9.66098 9.66141 8.4695 9.66141 6.99966C9.66141 5.52982 8.46993 4.33834 7.00009 4.33834C5.53025 4.33834 4.33877 5.52982 4.33877 6.99966C4.33877 8.4695 5.53025 9.66098 7.00009 9.66098Z" fill="white"/>
    </symbol>
    <!-- socials_05 -->
    <symbol id="socials_05" xmlns="http://www.w3.org/2000/svg" viewBox="0 0 16 16" fill="none">
        <path d="M14.5197 8.10031C14.3543 7.38198 13.7668 6.8521 13.0595 6.77323C11.3852 6.58619 9.6897 6.58531 8.00248 6.58619C6.31455 6.58531 4.61939 6.58619 2.94452 6.77323C2.23766 6.85228 1.65044 7.38216 1.48528 8.10031C1.24989 9.12319 1.24707 10.2398 1.24707 11.293C1.24707 12.3462 1.24707 13.4626 1.48246 14.4855C1.64761 15.2037 2.23484 15.7336 2.94205 15.8126C4.61657 15.9998 6.31173 16.0005 7.99948 15.9998C9.6874 16.0007 11.3822 15.9998 13.0573 15.8126C13.7641 15.7336 14.3517 15.2037 14.5169 14.4855C14.7521 13.4626 14.7533 12.3462 14.7533 11.293C14.7531 10.2396 14.7549 9.12319 14.5197 8.10031ZM5.09951 8.8931H4.12198V14.0875H3.21396V8.8931H2.25425V8.04226H5.09951V8.8931ZM7.56576 14.0876H6.74897V13.5962C6.42448 13.9682 6.1164 14.1496 5.81626 14.1496C5.55317 14.1496 5.37213 14.043 5.29043 13.8148C5.24597 13.6786 5.21844 13.463 5.21844 13.145V9.5832H6.03453V12.8996C6.03453 13.0909 6.03453 13.1902 6.04194 13.217C6.06152 13.3437 6.12346 13.4079 6.23286 13.4079C6.3966 13.4079 6.56776 13.2818 6.7488 13.0257V9.5832H7.56559L7.56576 14.0876ZM10.6665 12.7357C10.6665 13.1523 10.6385 13.4524 10.5839 13.6433C10.4749 13.9784 10.2566 14.1496 9.93196 14.1496C9.64153 14.1496 9.36132 13.9883 9.08835 13.6513V14.0878H8.27227V8.04226H9.08835V10.0166C9.35197 9.69207 9.63182 9.52797 9.93196 9.52797C10.2566 9.52797 10.4751 9.69895 10.5839 10.0361C10.6388 10.2174 10.6665 10.5152 10.6665 10.9417V12.7357ZM13.7468 11.9842H12.1145V12.7826C12.1145 13.1996 12.2509 13.4078 12.5314 13.4078C12.7324 13.4078 12.8494 13.2985 12.896 13.0804C12.9036 13.0362 12.9143 12.8548 12.9143 12.5275H13.747V12.6466C13.747 12.9096 13.7369 13.0909 13.7295 13.1724C13.7022 13.3531 13.638 13.517 13.539 13.6613C13.3129 13.9885 12.978 14.1497 12.5517 14.1497C12.1247 14.1497 11.7997 13.9961 11.5638 13.6885C11.3907 13.463 11.3017 13.108 11.3017 12.6293V11.0516C11.3017 10.5701 11.3806 10.2179 11.5541 9.99027C11.7898 9.68201 12.1147 9.5285 12.5316 9.5285C12.9411 9.5285 13.2658 9.68201 13.4945 9.99027C13.6655 10.2179 13.7472 10.5701 13.7472 11.0516V11.9842H13.7468Z" fill="white"/>
        <path d="M12.5243 10.2629C12.2515 10.2629 12.1147 10.4713 12.1147 10.8877V11.3045H12.9308V10.8877C12.9307 10.4713 12.7943 10.2629 12.5243 10.2629Z" fill="white"/>
        <path d="M9.49521 10.2629C9.36075 10.2629 9.22453 10.3264 9.08813 10.4614V13.2068C9.22435 13.3434 9.36075 13.408 9.49521 13.408C9.73059 13.408 9.85023 13.2068 9.85023 12.8001V10.8775C9.85023 10.4713 9.73059 10.2629 9.49521 10.2629Z" fill="white"/>
        <path d="M9.9512 6.17104C10.252 6.17104 10.5651 5.98824 10.8934 5.61205V6.10858H11.7183V1.55634H10.8934V5.03559C10.7106 5.29391 10.5374 5.42166 10.3724 5.42166C10.2619 5.42166 10.197 5.35637 10.179 5.22845C10.1689 5.20145 10.1689 5.10105 10.1689 4.90784V1.55634H9.34668V5.15593C9.34668 5.47742 9.37421 5.69498 9.41973 5.83279C9.50266 6.06341 9.68564 6.17104 9.9512 6.17104Z" fill="white"/>
        <path d="M4.20861 3.63453V6.10854H5.12333V3.63453L6.22368 0H5.29873L4.67462 2.39884L4.02528 0H3.06274C3.2556 0.56623 3.45623 1.13528 3.64909 1.70204C3.94253 2.55394 4.12568 3.19622 4.20861 3.63453Z" fill="white"/>
        <path d="M7.44977 6.17095C7.86302 6.17095 8.18416 6.0155 8.41195 5.70495C8.58505 5.47715 8.66798 5.11825 8.66798 4.63442V3.04037C8.66798 2.55372 8.58523 2.19799 8.41195 1.96808C8.18416 1.65664 7.86319 1.50119 7.44977 1.50119C7.03864 1.50119 6.71768 1.65664 6.48935 1.96808C6.31413 2.19799 6.2312 2.55372 6.2312 3.04037V4.63442C6.2312 5.11825 6.31413 5.47715 6.48935 5.70495C6.7175 6.0155 7.03864 6.17095 7.44977 6.17095ZM7.05611 2.87503C7.05611 2.45385 7.18386 2.24387 7.44977 2.24387C7.71568 2.24387 7.84308 2.45367 7.84308 2.87503V4.78987C7.84308 5.21106 7.71568 5.42174 7.44977 5.42174C7.18386 5.42174 7.05611 5.21106 7.05611 4.78987V2.87503Z" fill="white"/>
    </symbol>
    <!-- socials_06 -->
    <symbol id="socials_06" xmlns="http://www.w3.org/2000/svg" viewBox="0 0 14 14" fill="none">
        <g clip-path="url(#clip0_324_4016)">
            <path d="M8.35015 8.35002C7.25013 9.48504 7.17012 10.9001 7.07512 14.0001C9.96517 14.0001 11.9602 13.9901 12.9902 12.9901C13.9902 11.9601 14.0002 9.87005 14.0002 7.075C10.9002 7.175 9.48517 7.25 8.35015 8.35002ZM0 7.075C0 9.87005 0.0100002 11.9601 1.01002 12.9901C2.04004 13.9901 4.03507 14.0001 6.92512 14.0001C6.82512 10.9001 6.75012 9.48504 5.6501 8.35002C4.51508 7.25 3.10005 7.17 0 7.075ZM6.92512 -0.00012207C4.04007 -0.00012207 2.04004 0.00987809 1.01002 1.0099C0.0100002 2.03991 0 4.12995 0 6.925C3.10005 6.825 4.51508 6.75 5.6501 5.64998C6.75012 4.51496 6.83012 3.09993 6.92512 -0.00012207ZM8.35015 5.64998C7.25013 4.51496 7.17012 3.09993 7.07512 -0.00012207C9.96517 -0.00012207 11.9602 0.00987809 12.9902 1.0099C13.9902 2.03991 14.0002 4.12995 14.0002 6.925C10.9002 6.825 9.48517 6.75 8.35015 5.64998Z" fill="white"/>
        </g>
        <defs>
            <clipPath id="clip0_324_4016">
                <rect width="14.0002" height="14.0002" fill="white"/>
            </clipPath>
        </defs>
    </symbol>

    <symbol id="user" xmlns="http://www.w3.org/2000/svg"  viewBox="0 0 16 16">
        <path fill-rule="evenodd" clip-rule="evenodd" d="M11.5581 11.2998H4.44185C3.92542 11.2998 3.43699 11.5345 3.11437 11.9378L2.61462 12.5625C2.24795 13.0208 2.57427 13.6998 3.16122 13.6998H12.8387C13.4257 13.6998 13.752 13.0208 13.3853 12.5625L12.8856 11.9378C12.563 11.5345 12.0745 11.2998 11.5581 11.2998ZM4.44185 9.99976C3.5305 9.99976 2.66856 10.414 2.09924 11.1257L1.59949 11.7504C0.551867 13.0599 1.48421 14.9998 3.16122 14.9998H12.8387C14.5157 14.9998 15.4481 13.0599 14.4005 11.7504L13.9007 11.1257C13.3314 10.414 12.4695 9.99976 11.5581 9.99976H4.44185ZM7.99995 1.12988C10.2091 1.12988 12 2.92074 12 5.12988C12 7.33902 10.2091 9.12988 7.99995 9.12988C5.79081 9.12988 3.99995 7.33902 3.99995 5.12988C3.99995 2.92074 5.79081 1.12988 7.99995 1.12988ZM7.99999 2.46988C6.52723 2.46988 5.33333 3.66379 5.33333 5.13655C5.33333 6.60931 6.52723 7.80322 7.99999 7.80322C9.47275 7.80322 10.6667 6.60931 10.6667 5.13655C10.6667 3.66379 9.47275 2.46988 7.99999 2.46988Z"/>
    </symbol>

    <symbol id="socials_second-01" xmlns="http://www.w3.org/2000/svg" viewBox="0 0 24 24" fill="none">
        <rect width="24" height="24" rx="12" fill="#4D9DD5"/>
        <path fill-rule="evenodd" clip-rule="evenodd" d="M18.8572 12C18.8572 15.7871 15.7871 18.8571 12 18.8571C8.21293 18.8571 5.14288 15.7871 5.14288 12C5.14288 8.2129 8.21293 5.14285 12 5.14285C15.7871 5.14285 18.8572 8.2129 18.8572 12ZM12.2698 9.97668C11.5183 10.2914 10.0217 10.9402 7.77355 11.9165C7.41385 12.0642 7.22115 12.2055 7.20188 12.3468C7.17344 12.5858 7.47252 12.6786 7.87598 12.8038C7.92804 12.82 7.98184 12.8367 8.0369 12.8543C8.43514 12.9827 8.96184 13.1305 9.23804 13.1369C9.48855 13.1433 9.76475 13.0406 10.0731 12.8286C12.1735 11.4091 13.2526 10.6897 13.3232 10.6768C13.3746 10.664 13.4388 10.6511 13.4838 10.6897C13.5288 10.7282 13.5288 10.8053 13.5223 10.8245C13.4917 10.9522 12.2386 12.1155 11.6684 12.6449C11.5215 12.7813 11.4199 12.8756 11.3962 12.8992C11.336 12.9613 11.2747 13.02 11.2157 13.0764C10.847 13.4293 10.5703 13.6942 11.2292 14.1261C11.5288 14.3238 11.7704 14.4887 12.0083 14.651C12.2959 14.8472 12.5781 15.0397 12.9507 15.2823C13.0384 15.3399 13.1225 15.3997 13.2045 15.458C13.5244 15.6856 13.8132 15.891 14.1711 15.8603C14.3766 15.8411 14.5886 15.6484 14.6978 15.0703C14.9547 13.7086 15.4557 10.7475 15.5713 9.52706C15.5842 9.42429 15.5713 9.2894 15.5585 9.22517C15.5456 9.16093 15.5264 9.07743 15.4493 9.0132C15.3529 8.93612 15.2116 8.92327 15.1474 8.92327C14.8584 8.9297 14.4087 9.08385 12.2698 9.97668Z" fill="white"/>
    </symbol>

    <symbol id="socials_second-02" xmlns="http://www.w3.org/2000/svg" viewBox="0 0 25 24" fill="none">
        <rect x="0.5" width="24" height="24" rx="12" fill="#62CC55"/>
        <ellipse cx="12.5" cy="11.9999" rx="6.85714" ry="6.85711" fill="white"/>
        <path d="M7.22673 19.4051L7.83901 15.7005L10.5825 17.7205L7.22673 19.4051Z" fill="white"/>
        <path fill-rule="evenodd" clip-rule="evenodd" d="M12.5001 17.5665C15.6048 17.5665 18.1216 15.0497 18.1216 11.945C18.1216 8.84032 15.6048 6.32349 12.5001 6.32349C9.39539 6.32349 6.87854 8.84032 6.87854 11.945C6.87854 13.5976 7.59162 15.0836 8.72687 16.1121L8.43367 17.7121L9.91268 16.937C10.6872 17.3392 11.5671 17.5665 12.5001 17.5665Z" fill="#62CC55"/>
        <path d="M11.9653 12.6401C11.2711 12.0945 10.5936 11.4474 10.8439 11.1295C11.2029 10.6748 11.5264 10.3823 10.7003 9.57123C9.87409 8.76016 9.47539 9.50569 9.12839 9.94598C8.72802 10.454 9.35911 12.0961 11.231 13.572C13.1029 15.048 14.8472 15.277 15.2481 14.7689C15.5942 14.3277 16.225 13.7672 15.2449 13.1533C14.2647 12.5394 14.0555 12.9228 13.6975 13.3772C13.4455 13.695 12.6583 13.1874 11.9653 12.6401Z" fill="white"/>
    </symbol>

    <symbol id="like-up" xmlns="http://www.w3.org/2000/svg" viewBox="0 0 24 24" fill="none">
        <path fill-rule="evenodd" clip-rule="evenodd" d="M12.5964 2.0431C11.2946 1.95101 10.2931 3.02871 10.2931 4.24933L10.2931 5.30181C10.2931 7.96849 8.48031 9.08694 7.51866 9.50139C7.3646 9.56779 7.19129 9.60994 6.99615 9.63302C6.93593 8.72109 6.17717 8.00006 5.25 8.00006H3.75C2.7835 8.00006 2 8.78356 2 9.75006V20.2501C2 21.2166 2.7835 22.0001 3.75 22.0001H5.25C6.15903 22.0001 6.90618 21.307 6.99181 20.4204C7.83027 20.4808 8.65913 20.7158 9.6829 21.006C9.87595 21.0608 10.0759 21.1175 10.2842 21.1753C11.7485 21.5821 13.4975 22.0001 15.8276 22.0001C18.0161 22.0001 19.5214 21.796 20.4112 20.6281C20.8332 20.0742 21.0603 19.3728 21.2266 18.5778C21.3746 17.8702 21.4889 17.0076 21.6227 15.9978L21.6745 15.6078C21.9926 13.2222 22.0022 11.4278 21.4506 10.2145C21.1576 9.57011 20.7077 9.08869 20.0963 8.78267C19.5051 8.48676 18.8123 8.3794 18.0604 8.3794H16.0095C16.0268 8.2435 16.0461 8.10029 16.0662 7.95021C16.0906 7.76915 16.1163 7.57783 16.1415 7.37758C16.2023 6.8951 16.2586 6.37209 16.2586 5.93974C16.2586 4.69536 16.0371 3.68709 15.3387 2.99861C14.6546 2.32419 13.6709 2.1191 12.5964 2.0431ZM7 18.9182C8.05887 18.9821 9.07873 19.2731 10.1178 19.5695C10.3063 19.6232 10.4955 19.6772 10.6857 19.73C12.092 20.1207 13.6922 20.5001 15.8276 20.5001C18.1046 20.5001 18.8321 20.2257 19.2181 19.719C19.434 19.4356 19.6056 19.0008 19.7583 18.2707C19.8941 17.6218 20.0004 16.8202 20.1365 15.7944L20.1876 15.4096C20.5075 13.0107 20.4397 11.6154 20.085 10.8353C19.9248 10.4829 19.7096 10.2666 19.4249 10.124C19.1199 9.97139 18.6855 9.8794 18.0604 9.8794H15.6896C15.0085 9.8794 14.3969 9.30867 14.4786 8.55087C14.5048 8.30752 14.5441 8.0143 14.584 7.71725C14.6078 7.53964 14.6318 7.36047 14.6533 7.18996C14.714 6.70838 14.7586 6.2685 14.7586 5.93974C14.7586 4.81512 14.5458 4.32326 14.2856 4.06681C14.0112 3.79629 13.5124 3.61163 12.4906 3.53936C12.1398 3.51455 11.7931 3.81319 11.7931 4.24935L11.7931 5.30182C11.7931 8.85134 9.30493 10.3649 8.11234 10.8789C7.74059 11.0391 7.35937 11.1113 7 11.1396V18.9182ZM3.75 20.5001C3.61193 20.5001 3.5 20.3881 3.5 20.2501V9.75006C3.5 9.61199 3.61193 9.50006 3.75 9.50006H5.25C5.38807 9.50006 5.5 9.61199 5.5 9.75006V20.2501C5.5 20.3881 5.38807 20.5001 5.25 20.5001H3.75Z" fill="#0B7636"/>
    </symbol>

    <symbol id="like-bottom" xmlns="http://www.w3.org/2000/svg" viewBox="0 0 24 24" fill="none">
        <path fill-rule="evenodd" clip-rule="evenodd" d="M12.5964 21.957C11.2946 22.0491 10.2931 20.9714 10.2931 19.7508L10.2931 18.6983C10.2931 16.0316 8.48031 14.9132 7.51866 14.4987C7.3646 14.4323 7.19129 14.3901 6.99615 14.3671C6.93593 15.279 6.17717 16 5.25 16H3.75C2.7835 16 2 15.2165 2 14.25V3.75003C2 2.78353 2.7835 2.00003 3.75 2.00003H5.25C6.15903 2.00003 6.90618 2.69313 6.99181 3.57969C7.83027 3.51925 8.65913 3.28427 9.6829 2.99405C9.87595 2.93932 10.0759 2.88263 10.2842 2.82478C11.7485 2.41802 13.4975 2 15.8276 2C18.0161 2 19.5214 2.20406 20.4112 3.37198C20.8332 3.92585 21.0603 4.62733 21.2266 5.42229C21.3746 6.12991 21.4889 6.99252 21.6227 8.00224L21.6745 8.39225C21.9926 10.7778 22.0022 12.5723 21.4506 13.7856C21.1576 14.43 20.7077 14.9114 20.0963 15.2174C19.5051 15.5133 18.8123 15.6207 18.0604 15.6207H16.0095C16.0268 15.7566 16.046 15.8997 16.0662 16.0498C16.0906 16.2309 16.1163 16.4222 16.1415 16.6225C16.2023 17.105 16.2586 17.628 16.2586 18.0603C16.2586 19.3047 16.0371 20.313 15.3387 21.0015C14.6546 21.6759 13.6709 21.881 12.5964 21.957ZM7 5.08189C8.05887 5.01796 9.07873 4.72703 10.1178 4.43063C10.3063 4.37684 10.4955 4.32288 10.6857 4.27005C12.092 3.87939 13.6922 3.5 15.8276 3.5C18.1046 3.5 18.8321 3.77439 19.2181 4.28104C19.434 4.56445 19.6056 4.99929 19.7583 5.72938C19.8941 6.37832 20.0004 7.17989 20.1365 8.20564L20.1876 8.59051C20.5075 10.9894 20.4397 12.3846 20.085 13.1648C19.9248 13.5172 19.7096 13.7335 19.4249 13.8761C19.1199 14.0287 18.6855 14.1207 18.0604 14.1207H15.6896C15.0085 14.1207 14.3969 14.6914 14.4786 15.4492C14.5048 15.6926 14.5441 15.9858 14.584 16.2828C14.6078 16.4605 14.6318 16.6396 14.6533 16.8101C14.714 17.2917 14.7586 17.7316 14.7586 18.0603C14.7586 19.185 14.5458 19.6768 14.2856 19.9333C14.0112 20.2038 13.5124 20.3885 12.4906 20.4607C12.1398 20.4855 11.7931 20.1869 11.7931 19.7507L11.7931 18.6983C11.7931 15.1487 9.30493 13.6352 8.11234 13.1212C7.74059 12.961 7.35937 12.8888 7 12.8605V5.08189ZM3.75 3.50003C3.61193 3.50003 3.5 3.61196 3.5 3.75003V14.25C3.5 14.3881 3.61193 14.5 3.75 14.5H5.25C5.38807 14.5 5.5 14.3881 5.5 14.25V3.75003C5.5 3.61196 5.38807 3.50003 5.25 3.50003H3.75Z" fill="#08170E" fill-opacity="0.3"/>
    </symbol>

    <!-- date -->
    <symbol id="date" xmlns="http://www.w3.org/2000/svg" viewBox="0 0 24 24">
        <path d="M19 5H5C3.89543 5 3 5.79594 3 6.77778V19.2222C3 20.2041 3.89543 21 5 21H19C20.1046 21 21 20.2041 21 19.2222V6.77778C21 5.79594 20.1046 5 19 5Z"
              stroke-width="2" stroke-linecap="round" stroke-linejoin="round"/>
        <path d="M16 3V7" stroke-width="2" stroke-linecap="round" stroke-linejoin="round"/>
        <path d="M8 3V7" stroke-width="2" stroke-linecap="round" stroke-linejoin="round"/>
        <path d="M3 11H21" stroke-width="2" stroke-linecap="round" stroke-linejoin="round"/>
    </symbol>


    <!-- menu__ico-main-01 -->
    <symbol id="menu__ico-main-01" xmlns="http://www.w3.org/2000/svg" viewBox="0 0 16 16" fill="none">
        <path fill-rule="evenodd" clip-rule="evenodd" d="M11.5581 11.2998H4.44185C3.92542 11.2998 3.43699 11.5345 3.11437 11.9378L2.61462 12.5625C2.24795 13.0208 2.57427 13.6998 3.16122 13.6998H12.8387C13.4257 13.6998 13.752 13.0208 13.3853 12.5625L12.8856 11.9378C12.563 11.5345 12.0745 11.2998 11.5581 11.2998ZM4.44185 9.99976C3.5305 9.99976 2.66856 10.414 2.09924 11.1257L1.59949 11.7504C0.551867 13.0599 1.48421 14.9998 3.16122 14.9998H12.8387C14.5157 14.9998 15.4481 13.0599 14.4005 11.7504L13.9007 11.1257C13.3314 10.414 12.4695 9.99976 11.5581 9.99976H4.44185ZM7.99995 1.12988C10.2091 1.12988 12 2.92074 12 5.12988C12 7.33902 10.2091 9.12988 7.99995 9.12988C5.79081 9.12988 3.99995 7.33902 3.99995 5.12988C3.99995 2.92074 5.79081 1.12988 7.99995 1.12988ZM7.99999 2.46988C6.52723 2.46988 5.33333 3.66379 5.33333 5.13655C5.33333 6.60931 6.52723 7.80322 7.99999 7.80322C9.47275 7.80322 10.6667 6.60931 10.6667 5.13655C10.6667 3.66379 9.47275 2.46988 7.99999 2.46988Z" fill="white"/>
    </symbol>

<symbol id="menu__ico-main-02" xmlns="http://www.w3.org/2000/svg" viewBox="0 0 16 16" fill="none">
        <rect x="0.8" y="1.8" width="14.4" height="12.4" rx="2.2" stroke="white" stroke-width="1.6"/>
        <rect x="3" y="5" width="2" height="2" rx="0.5" fill="white"/>
        <rect x="6" y="5" width="7" height="2" rx="0.5" fill="white"/>
        <rect x="3" y="9" width="2" height="2" rx="0.5" fill="white"/>
        <rect x="6" y="9" width="7" height="2" rx="0.5" fill="white"/>
    </symbol>

<symbol id="menu__ico-main-03" xmlns="http://www.w3.org/2000/svg" viewBox="0 0 16 16" fill="none">
        <g clip-path="url(#clip0_564_1328)">
            <path fill-rule="evenodd" clip-rule="evenodd" d="M0 2.25C0 1.83579 0.335786 1.5 0.75 1.5H5.00286C6.23012 1.5 7.31979 2.08958 8.00393 3.00106C8.68803 2.08962 9.77766 1.5 11.005 1.5H15.25C15.6642 1.5 16 1.83579 16 2.25V12.75C16 13.1642 15.6642 13.5 15.25 13.5H10.7426C10.1459 13.5 9.57361 13.7371 9.15165 14.159L8.53033 14.7803C8.23744 15.0732 7.76256 15.0732 7.46967 14.7803L6.84835 14.159C6.42639 13.7371 5.8541 13.5 5.25736 13.5H0.75C0.335786 13.5 0 13.1642 0 12.75V2.25ZM8.755 5.25C8.755 4.00736 9.76236 3 11.005 3H14.5V12H10.7426C10.0326 12 9.34339 12.2014 8.75124 12.5724L8.755 5.25ZM7.25124 12.574L7.255 7.50071L7.25285 5.24786C7.25167 4.00605 6.24466 3 5.00286 3H1.5V12H5.25736C5.96836 12 6.65854 12.2019 7.25124 12.574Z" fill="white"/>
        </g>
        <defs>
            <clipPath id="clip0_564_1328">
                <rect width="16" height="16" fill="white"/>
            </clipPath>
        </defs>
    </symbol>

<symbol id="menu__ico-main-04" xmlns="http://www.w3.org/2000/svg" viewBox="0 0 16 16" fill="none">
        <g clip-path="url(#clip0_564_2149)">
            <mask id="path-1-inside-1_564_2149" fill="white">
                <path fill-rule="evenodd" clip-rule="evenodd" d="M3 1C1.34315 1 0 2.34315 0 4V8C0 9.48489 1.07881 10.7178 2.4954 10.9577L2.4954 12.443C2.4954 12.9037 2.99309 13.1925 3.39309 12.9639L6.82996 11H10C11.6569 11 13 9.65685 13 8V4C13 2.34315 11.6569 1 10 1H3Z"/>
            </mask>
            <path d="M2.4954 10.9577H3.9954L3.9954 9.69044L2.74589 9.47881L2.4954 10.9577ZM2.4954 12.443H0.995403H2.4954ZM3.39309 12.9639L4.1373 14.2663H4.1373L3.39309 12.9639ZM6.82996 11V9.5H6.43162L6.08575 9.69764L6.82996 11ZM1.5 4C1.5 3.17157 2.17157 2.5 3 2.5V-0.5C0.514719 -0.5 -1.5 1.51472 -1.5 4H1.5ZM1.5 8V4H-1.5V8H1.5ZM2.74589 9.47881C2.03871 9.35903 1.5 8.74094 1.5 8H-1.5C-1.5 10.2288 0.118904 12.0766 2.24491 12.4367L2.74589 9.47881ZM3.9954 12.443L3.9954 10.9577H0.995404L0.995403 12.443H3.9954ZM2.64888 11.6616C3.24887 11.3187 3.9954 11.7519 3.9954 12.443H0.995403C0.995403 14.0554 2.73732 15.0663 4.1373 14.2663L2.64888 11.6616ZM6.08575 9.69764L2.64888 11.6616L4.1373 14.2663L7.57417 12.3024L6.08575 9.69764ZM10 9.5H6.82996V12.5H10V9.5ZM11.5 8C11.5 8.82843 10.8284 9.5 10 9.5V12.5C12.4853 12.5 14.5 10.4853 14.5 8H11.5ZM11.5 4V8H14.5V4H11.5ZM10 2.5C10.8284 2.5 11.5 3.17157 11.5 4H14.5C14.5 1.51472 12.4853 -0.5 10 -0.5V2.5ZM3 2.5H10V-0.5H3V2.5Z" fill="white" mask="url(#path-1-inside-1_564_2149)"/>
            <path fill-rule="evenodd" clip-rule="evenodd" d="M14 6.16144C14.3069 6.4361 14.5 6.83524 14.5 7.27949V10.7979C14.5 11.5182 13.9908 12.123 13.3117 12.2658L12.1204 12.5163L12.1204 13.5926L10.2006 12.4955L10 12.3809V14.1085L12.7227 15.6644C13.1227 15.8929 13.6204 15.6041 13.6204 15.1434L13.6204 13.7337C14.9796 13.4479 16 12.2421 16 10.7979V7.27949C16 5.97327 15.1652 4.86203 14 4.4502V6.16144Z" fill="white"/>
        </g>
        <defs>
            <clipPath id="clip0_564_2149">
                <rect width="16" height="16" fill="white"/>
            </clipPath>
        </defs>
    </symbol>

    <symbol id="menu__ico-main-05" xmlns="http://www.w3.org/2000/svg" viewBox="0 0 16 16" fill="none">
        <path fill-rule="evenodd" clip-rule="evenodd" d="M11.2412 5.61573C11.2412 4.17597 10.61 2.88363 9.60929 2.00032C9.625 2.00011 9.64072 2 9.65648 2C11.551 2 13.0869 3.53584 13.0869 5.43039C13.0869 7.20867 11.7338 8.67092 10.001 8.8437C10.7719 7.98915 11.2412 6.85725 11.2412 5.61573ZM13.4373 11.5476C13.9319 12.3075 13.9316 13.1844 13.59 13.8947H14.254C15.5118 13.8947 16.211 12.4398 15.4253 11.4576L14.8453 10.7326C14.276 10.021 13.414 9.60669 12.5027 9.60669H11.756C12.1787 9.84077 12.5451 10.177 12.8169 10.5945L13.4373 11.5476ZM3.49706 10.9069H9.18928C9.70572 10.9069 10.1941 11.1417 10.5168 11.5449L11.0968 12.27C11.1319 12.3139 11.1404 12.3473 11.1427 12.3722C11.1455 12.4028 11.14 12.4417 11.1209 12.4816C11.1017 12.5214 11.0748 12.55 11.0492 12.5669C11.0282 12.5807 10.9969 12.5949 10.9406 12.5949H1.74574C1.68946 12.5949 1.65813 12.5807 1.63719 12.5669C1.61154 12.55 1.58465 12.5214 1.56548 12.4816C1.5463 12.4417 1.54081 12.4028 1.54362 12.3722C1.54592 12.3473 1.55441 12.3139 1.58956 12.27L2.16958 11.5449C2.4922 11.1417 2.98063 10.9069 3.49706 10.9069ZM1.15446 10.7328C1.72377 10.0212 2.58571 9.60693 3.49706 9.60693H9.18928C10.1006 9.60693 10.9626 10.0212 11.5319 10.7328L12.1119 11.4579C12.8976 12.44 12.1984 13.8949 10.9406 13.8949H1.74574C0.487979 13.8949 -0.211284 12.44 0.574432 11.4579L1.15446 10.7328ZM9.77347 5.43062C9.77347 3.53607 8.23763 2.00023 6.34308 2.00023C4.44853 2.00023 2.91269 3.53607 2.91269 5.43062C2.91269 7.32518 4.44853 8.86101 6.34308 8.86101C8.23763 8.86101 9.77347 7.32518 9.77347 5.43062ZM4.05624 5.43652C4.05624 4.17349 5.08014 3.14959 6.34317 3.14959C7.60621 3.14959 8.6301 4.17349 8.6301 5.43652C8.6301 6.69955 7.60621 7.72345 6.34317 7.72345C5.08014 7.72345 4.05624 6.69955 4.05624 5.43652Z" fill="white"/>
    </symbol>

    <symbol id="menu__ico-main-06" xmlns="http://www.w3.org/2000/svg" viewBox="0 0 16 16" fill="none">
        <path d="M8 0C6.41775 0 4.87103 0.469192 3.55544 1.34824C2.23985 2.22729 1.21447 3.47672 0.608967 4.93853C0.00346631 6.40034 -0.15496 8.00887 0.153721 9.56072C0.462403 11.1126 1.22433 12.538 2.34315 13.6569C3.46197 14.7757 4.88743 15.5376 6.43928 15.8463C7.99113 16.155 9.59966 15.9965 11.0615 15.391C12.5233 14.7855 13.7727 13.7602 14.6518 12.4446C15.5308 11.129 16 9.58225 16 8C16 5.87827 15.1571 3.84344 13.6569 2.34315C12.1566 0.842855 10.1217 0 8 0ZM8 14.5455C6.70543 14.5455 5.43994 14.1616 4.36354 13.4423C3.28715 12.7231 2.4482 11.7009 1.95279 10.5048C1.45738 9.30881 1.32776 7.99274 1.58032 6.72304C1.83288 5.45335 2.45627 4.28706 3.37167 3.37166C4.28707 2.45627 5.45335 1.83287 6.72305 1.58031C7.99274 1.32776 9.30881 1.45738 10.5048 1.95279C11.7009 2.4482 12.7231 3.28715 13.4423 4.36354C14.1616 5.43993 14.5455 6.70543 14.5455 8C14.5455 9.73596 13.8558 11.4008 12.6283 12.6283C11.4008 13.8558 9.73596 14.5455 8 14.5455Z" fill="white"/>
        <path fill-rule="evenodd" clip-rule="evenodd" d="M5.80005 10.7V12H7.10005V10.7H9.5V9.5H7.10005V8.69H8.68005C9.60005 8.69 10.3234 8.49333 10.85 8.1C11.3834 7.7 11.65 7.11667 11.65 6.35C11.65 5.57667 11.3834 4.99333 10.85 4.6C10.3234 4.2 9.60005 4 8.68005 4H5.80005V9.5H4.5V10.7H5.80005ZM7.10005 7.64H8.67005C9.20338 7.64 9.61338 7.53 9.90005 7.31C10.1934 7.08333 10.34 6.76667 10.34 6.36C10.34 5.95333 10.1934 5.64333 9.90005 5.43C9.61338 5.21 9.20338 5.1 8.67005 5.1H7.10005V7.64Z" fill="white"/>
    </symbol>

    <symbol id="menu__ico-main-07" xmlns="http://www.w3.org/2000/svg" viewBox="0 0 16 16" fill="none">
        <path fill-rule="evenodd" clip-rule="evenodd" d="M14.0641 0C11.7435 9.77766e-05 9.51798 0.922034 7.87711 2.563L7.41811 3.021C7.10411 3.335 6.80211 3.662 6.51411 4H3.31011C3.01129 4.00009 2.71748 4.07669 2.45665 4.2225C2.19583 4.36832 1.97669 4.57849 1.82011 4.833L0.110112 7.607C0.0500859 7.7045 0.0131795 7.81445 0.0022219 7.92842C-0.00873566 8.04239 0.00654649 8.15736 0.046897 8.26451C0.0872476 8.37166 0.151595 8.46815 0.235008 8.54658C0.31842 8.62502 0.418683 8.68331 0.528112 8.717L3.63011 9.671C3.66711 9.722 3.70911 9.771 3.75411 9.816L6.18311 12.244C6.22911 12.29 6.27711 12.332 6.32811 12.369L7.28211 15.471C7.3158 15.5804 7.37409 15.6807 7.45253 15.7641C7.53096 15.8475 7.62745 15.9119 7.7346 15.9522C7.84175 15.9926 7.95672 16.0078 8.07069 15.9969C8.18466 15.9859 8.29461 15.949 8.39211 15.889L11.1661 14.182C11.4206 14.0254 11.6308 13.8063 11.7766 13.5455C11.9224 13.2846 11.999 12.9908 11.9991 12.692V9.485C12.3371 9.197 12.6641 8.895 12.9781 8.581L13.4361 8.122C15.0772 6.48154 15.9995 4.2564 16.0001 1.936V1.75C16.0001 1.28587 15.8157 0.840752 15.4875 0.512563C15.1593 0.184374 14.7142 0 14.2501 0H14.0641ZM10.5001 10.625C10.4121 10.685 10.3231 10.743 10.2341 10.8L7.88411 12.321L8.43211 14.104L10.3811 12.904C10.4175 12.8816 10.4475 12.8503 10.4683 12.813C10.4892 12.7757 10.5001 12.7337 10.5001 12.691V10.625ZM3.67811 8.116L5.20011 5.766C5.25811 5.676 5.31711 5.588 5.37611 5.5H3.30911C3.2664 5.49999 3.22439 5.51092 3.18711 5.53175C3.14982 5.55258 3.11849 5.58262 3.09611 5.619L1.89611 7.569L3.67811 8.116ZM8.93811 3.623C10.2974 2.26391 12.1409 1.50028 14.0631 1.5H14.2491C14.3154 1.5 14.379 1.52634 14.4259 1.57322C14.4728 1.62011 14.4991 1.6837 14.4991 1.75V1.936C14.4992 2.88813 14.3118 3.83096 13.9475 4.71066C13.5833 5.59035 13.0493 6.38968 12.3761 7.063L11.9171 7.521C11.1571 8.281 10.3201 8.958 9.41811 9.541L7.10111 11.041L4.95811 8.898L6.45811 6.581C7.0415 5.67884 7.71859 4.84085 8.47811 4.081L8.93611 3.623H8.93811ZM12.0001 5C12.0001 5.26522 11.8947 5.51957 11.7072 5.70711C11.5197 5.89464 11.2653 6 11.0001 6C10.7349 6 10.4805 5.89464 10.293 5.70711C10.1054 5.51957 10.0001 5.26522 10.0001 5C10.0001 4.73478 10.1054 4.48043 10.293 4.29289C10.4805 4.10536 10.7349 4 11.0001 4C11.2653 4 11.5197 4.10536 11.7072 4.29289C11.8947 4.48043 12.0001 4.73478 12.0001 5ZM3.56011 14.56C3.70748 14.4227 3.82569 14.2571 3.90767 14.0731C3.98966 13.8891 4.03374 13.6905 4.03729 13.489C4.04085 13.2876 4.0038 13.0876 3.92836 12.9008C3.85291 12.714 3.74062 12.5444 3.59819 12.4019C3.45575 12.2595 3.28608 12.1472 3.09931 12.0718C2.91253 11.9963 2.71247 11.9593 2.51107 11.9628C2.30966 11.9664 2.11103 12.0105 1.92703 12.0924C1.74304 12.1744 1.57743 12.2926 1.44011 12.44C0.706112 13.17 0.393112 14.772 0.290112 15.443C0.284022 15.4792 0.286669 15.5163 0.297832 15.5512C0.308995 15.5861 0.328351 15.6179 0.354284 15.6438C0.380218 15.6698 0.411977 15.6891 0.446912 15.7003C0.481848 15.7114 0.518946 15.7141 0.555112 15.708C1.22611 15.605 2.82811 15.292 3.56011 14.56Z" fill="white"/>
    </symbol>

    <symbol id="menu__ico-main-08" xmlns="http://www.w3.org/2000/svg" viewBox="0 0 16 16" fill="none">
        <rect x="0.8" y="1.8" width="14.4" height="12.4" rx="2.2" stroke="white" stroke-width="1.6"/>
        <path d="M4 10L6.14645 7.85355C6.34171 7.65829 6.65829 7.65829 6.85355 7.85355L8.14645 9.14645C8.34171 9.34171 8.65829 9.34171 8.85355 9.14645L12.5 5.5" stroke="white" stroke-width="1.6" stroke-linecap="round"/>
    </symbol>

    <!-- menu__ico-second-01 -->
    <symbol id="menu__ico-second-01" xmlns="http://www.w3.org/2000/svg" viewBox="0 0 24 24" fill="none">
        <path fill-rule="evenodd" clip-rule="evenodd" d="M12 24C18.6274 24 24 18.6274 24 12C24 5.37258 18.6274 0 12 0C5.37258 0 0 5.37258 0 12C0 18.6274 5.37258 24 12 24ZM12 5.13008C13.9882 5.13008 15.6 6.74186 15.6 8.73008C15.6 10.7183 13.9882 12.3301 12 12.3301C10.0117 12.3301 8.39997 10.7183 8.39997 8.73008C8.39997 6.74186 10.0117 5.13008 12 5.13008ZM6.24147 15.0384C6.81133 14.379 7.63978 14 8.51131 14H15.4886C16.3602 14 17.1886 14.379 17.7585 15.0384L18.1773 15.523C19.1851 16.6891 18.3567 18.5 16.8154 18.5H7.18455C5.64328 18.5 4.81487 16.6891 5.82265 15.523L6.24147 15.0384Z" fill="#FED45C"/>
    </symbol>

    <!-- menu__ico-second-02 -->
    <symbol id="menu__ico-second-02" xmlns="http://www.w3.org/2000/svg" viewBox="0 0 24 24" fill="none">
        <path fill-rule="evenodd" clip-rule="evenodd" d="M12 24C18.6274 24 24 18.6274 24 12C24 5.37258 18.6274 0 12 0C5.37258 0 0 5.37258 0 12C0 18.6274 5.37258 24 12 24ZM4 8C4 6.34315 5.34315 5 7 5H17C18.6569 5 20 6.34315 20 8V16C20 17.6569 18.6569 19 17 19H7C5.34315 19 4 17.6569 4 16V8ZM7.5 9C7.22386 9 7 9.22386 7 9.5V10.5C7 10.7761 7.22386 11 7.5 11H8.5C8.77614 11 9 10.7761 9 10.5V9.5C9 9.22386 8.77614 9 8.5 9H7.5ZM10.5 9C10.2239 9 10 9.22386 10 9.5V10.5C10 10.7761 10.2239 11 10.5 11H16.5C16.7761 11 17 10.7761 17 10.5V9.5C17 9.22386 16.7761 9 16.5 9H10.5ZM7 13.5C7 13.2239 7.22386 13 7.5 13H8.5C8.77614 13 9 13.2239 9 13.5V14.5C9 14.7761 8.77614 15 8.5 15H7.5C7.22386 15 7 14.7761 7 14.5V13.5ZM10.5 13C10.2239 13 10 13.2239 10 13.5V14.5C10 14.7761 10.2239 15 10.5 15H16.5C16.7761 15 17 14.7761 17 14.5V13.5C17 13.2239 16.7761 13 16.5 13H10.5Z" fill="#FED45C"/>
    </symbol>

    <!-- menu__ico-second-03 -->
    <symbol id="menu__ico-second-03" xmlns="http://www.w3.org/2000/svg" viewBox="0 0 24 24" fill="none">
        <path fill-rule="evenodd" clip-rule="evenodd" d="M12 24C18.6274 24 24 18.6274 24 12C24 5.37258 18.6274 0 12 0C5.37258 0 0 5.37258 0 12C0 18.6274 5.37258 24 12 24ZM4.75 5.5C4.33579 5.5 4 5.83579 4 6.25V16.75C4 17.1642 4.33579 17.5 4.75 17.5H9.25736C9.8541 17.5 10.4264 17.7371 10.8484 18.159L11.4697 18.7803C11.7626 19.0732 12.2374 19.0732 12.5303 18.7803L13.1517 18.159C13.5736 17.7371 14.1459 17.5 14.7426 17.5H19.25C19.6642 17.5 20 17.1642 20 16.75V6.25C20 5.83579 19.6642 5.5 19.25 5.5H15.005C13.7781 5.5 12.6889 6.08916 12.0047 7H12.0031C11.3189 6.08912 10.2296 5.5 9.00286 5.5H4.75ZM11.255 11.5007L11.2512 16.574C10.6585 16.2019 9.96836 16 9.25736 16H9V7H9.00286C10.2447 7 11.2517 8.00605 11.2528 9.24786L11.255 11.5007Z" fill="#FED45C"/>
    </symbol>

    <!-- menu__ico-second-04 -->
    <symbol id="menu__ico-second-04" xmlns="http://www.w3.org/2000/svg" viewBox="0 0 24 24" fill="none">
        <path fill-rule="evenodd" clip-rule="evenodd" d="M24 12C24 18.6274 18.6274 24 12 24C5.37258 24 0 18.6274 0 12C0 5.37258 5.37258 0 12 0C18.6274 0 24 5.37258 24 12ZM6.8 5.4C5.2536 5.4 4 6.6536 4 8.2V12.3C4 13.7435 5.09228 14.9318 6.4954 15.0836V16.843C6.4954 17.3037 6.99309 17.5925 7.39309 17.3639L11.355 15.1H13.9C15.4464 15.1 16.7 13.8464 16.7 12.3V8.2C16.7 6.6536 15.4464 5.4 13.9 5.4H6.8ZM18.5 11.2796C18.5 10.8353 18.3069 10.4362 18 10.1615V8.4503C19.1652 8.86213 20 9.97337 20 11.2796V14.798C20 16.2422 18.9796 17.448 17.6204 17.7338V19.1435C17.6204 19.6042 17.1227 19.893 16.7227 19.6645L14 18.1086V16.381L14.2006 16.4956L16.1204 17.5927V16.5164L17.3117 16.2659C17.9908 16.1231 18.5 15.5183 18.5 14.798V11.2796Z" fill="#FED45C"/>
    </symbol>

    <!-- menu__ico-second-05 -->
    <symbol id="menu__ico-second-05" xmlns="http://www.w3.org/2000/svg" viewBox="0 0 24 24" fill="none">
        <path fill-rule="evenodd" clip-rule="evenodd" d="M12 24C18.6274 24 24 18.6274 24 12C24 5.37258 18.6274 0 12 0C5.37258 0 0 5.37258 0 12C0 18.6274 5.37258 24 12 24ZM13.3415 6.01029C14.3537 6.83545 15.0001 8.0922 15.0001 9.49993C15.0001 10.5956 14.6085 11.5998 13.9576 12.3802C15.5566 12.2025 16.8 10.8464 16.8 9.2C16.8 7.43269 15.3673 6 13.6 6C13.513 6 13.4268 6.00348 13.3415 6.01029ZM17.5677 17.8947C17.9513 17.1451 17.9653 16.205 17.4368 15.3931L16.917 14.5945C16.6452 14.177 16.2788 13.8408 15.8561 13.6067H16.5027C17.4141 13.6067 18.276 14.021 18.8453 14.7326L19.4254 15.4576C20.2111 16.4398 19.5118 17.8947 18.2541 17.8947H17.5677ZM13.4 9.20023C13.4 7.43292 11.9673 6.00023 10.2 6.00023C8.4327 6.00023 7.00001 7.43292 7.00001 9.20023C7.00001 10.9675 8.4327 12.4002 10.2 12.4002C11.9673 12.4002 13.4 10.9675 13.4 9.20023ZM7.45676 13.8C6.56849 13.8 5.72589 14.1936 5.15589 14.8749L4.68521 15.4374C3.86824 16.4139 4.56251 17.9 5.83565 17.9H14.8508C16.1239 17.9 16.8182 16.4139 16.0012 15.4374L15.5306 14.8749C14.9606 14.1936 14.118 13.8 13.2297 13.8H7.45676Z" fill="#FED45C"/>
    </symbol>

    <!-- menu__ico-second-06 -->
    <symbol id="menu__ico-second-06" xmlns="http://www.w3.org/2000/svg" viewBox="0 0 24 24" fill="none">
        <path fill-rule="evenodd" clip-rule="evenodd" d="M12 24C18.6274 24 24 18.6274 24 12C24 5.37258 18.6274 0 12 0C5.37258 0 0 5.37258 0 12C0 18.6274 5.37258 24 12 24ZM20 12C20 16.4183 16.4183 20 12 20C7.58172 20 4 16.4183 4 12C4 7.58172 7.58172 4 12 4C16.4183 4 20 7.58172 20 12ZM9.6001 14.9V16.2H11.3001V14.9H13.7V13.5H11.3001V12.89H12.6801C13.6264 12.89 14.3975 12.6877 14.9701 12.26C15.5618 11.8163 15.8501 11.1689 15.8501 10.35C15.8501 9.52578 15.5626 8.87757 14.9699 8.43992C14.3973 8.00549 13.6264 7.80005 12.6801 7.80005H9.6001V13.5H8.30005V14.9H9.6001ZM12.6701 9.30005C13.1795 9.30005 13.5397 9.40561 13.7783 9.58871L13.7825 9.5918C14.0172 9.76252 14.1401 10.0084 14.1401 10.36C14.1401 10.7116 14.017 10.9669 13.778 11.1516C13.5395 11.3346 13.1793 11.44 12.6701 11.44H11.3001V9.30005H12.6701Z" fill="#FED45C"/>
    </symbol>

    <!-- menu__ico-second-07 -->
    <symbol id="menu__ico-second-07" xmlns="http://www.w3.org/2000/svg" viewBox="0 0 24 24" fill="none">
        <path fill-rule="evenodd" clip-rule="evenodd" d="M12 24C18.6274 24 24 18.6274 24 12C24 5.37258 18.6274 0 12 0C5.37258 0 0 5.37258 0 12C0 18.6274 5.37258 24 12 24ZM11.877 6.563C13.5179 4.92203 15.7434 4.0001 18.064 4H18.25C18.7141 4 19.1592 4.18437 19.4874 4.51256C19.8156 4.84075 20 5.28587 20 5.75V5.936C19.9994 8.2564 19.0771 10.4815 17.436 12.122L16.978 12.581C16.664 12.895 16.337 13.197 15.999 13.485V16.692C15.9989 16.9908 15.9223 17.2846 15.7765 17.5455C15.6307 17.8063 15.4205 18.0254 15.166 18.182L12.392 19.889C12.2945 19.949 12.1845 19.9859 12.0706 19.9969C11.9566 20.0078 11.8416 19.9926 11.7345 19.9522C11.6273 19.9119 11.5308 19.8475 11.4524 19.7641C11.374 19.6807 11.3157 19.5804 11.282 19.471L10.328 16.369C10.277 16.332 10.229 16.29 10.183 16.244L7.75399 13.816C7.70899 13.771 7.66699 13.722 7.62999 13.671L4.52799 12.717C4.41856 12.6833 4.3183 12.625 4.23489 12.5466C4.15147 12.4682 4.08713 12.3717 4.04677 12.2645C4.00642 12.1574 3.99114 12.0424 4.0021 11.9284C4.01306 11.8145 4.04996 11.7045 4.10999 11.607L5.81999 8.833C5.97657 8.57849 6.19571 8.36832 6.45653 8.2225C6.71736 8.07669 7.01117 8.00009 7.30999 8H10.514C10.802 7.662 11.104 7.335 11.418 7.021L11.877 6.563ZM14.234 14.8C14.323 14.743 14.412 14.685 14.5 14.625V16.691C14.5 16.7337 14.4891 16.7757 14.4682 16.813C14.4474 16.8503 14.4174 16.8816 14.381 16.904L12.432 18.104L11.884 16.321L14.234 14.8ZM9.19999 9.766L7.67799 12.116L5.89599 11.569L7.09599 9.619C7.11837 9.58262 7.1497 9.55258 7.18699 9.53175C7.22427 9.51092 7.26628 9.49999 7.30899 9.5H9.37599L9.37594 9.50007C9.31696 9.58805 9.25797 9.67602 9.19999 9.766ZM15.7071 9.70711C15.8946 9.51957 16 9.26522 16 9C16 8.73478 15.8946 8.48043 15.7071 8.29289C15.5196 8.10536 15.2652 8 15 8C14.7348 8 14.4804 8.10536 14.2929 8.29289C14.1053 8.48043 14 8.73478 14 9C14 9.26522 14.1053 9.51957 14.2929 9.70711C14.4804 9.89464 14.7348 10 15 10C15.2652 10 15.5196 9.89464 15.7071 9.70711ZM7.90755 18.0731C7.82557 18.2571 7.70736 18.4227 7.55999 18.56C6.82799 19.292 5.22599 19.605 4.55499 19.708C4.51882 19.7141 4.48173 19.7114 4.44679 19.7003C4.41186 19.6891 4.3801 19.6698 4.35416 19.6438C4.32823 19.6179 4.30887 19.5861 4.29771 19.5512C4.28655 19.5163 4.2839 19.4792 4.28999 19.443C4.39299 18.772 4.70599 17.17 5.43999 16.44C5.57731 16.2926 5.74292 16.1744 5.92691 16.0924C6.11091 16.0105 6.30954 15.9664 6.51095 15.9628C6.71235 15.9593 6.91241 15.9963 7.09919 16.0718C7.28596 16.1472 7.45563 16.2595 7.59807 16.4019C7.7405 16.5444 7.85279 16.714 7.92824 16.9008C8.00368 17.0876 8.04073 17.2876 8.03717 17.489C8.03362 17.6905 7.98954 17.8891 7.90755 18.0731Z" fill="#FED45C"/>
    </symbol>

    <!-- menu__ico-second-08 -->
    <symbol id="menu__ico-second-08" xmlns="http://www.w3.org/2000/svg" viewBox="0 0 24 24" fill="none">
        <path fill-rule="evenodd" clip-rule="evenodd" d="M12 24C18.6274 24 24 18.6274 24 12C24 5.37258 18.6274 0 12 0C5.37258 0 0 5.37258 0 12C0 18.6274 5.37258 24 12 24ZM4 8C4 6.34315 5.34315 5 7 5H17C18.6569 5 20 6.34315 20 8V16C20 17.6569 18.6569 19 17 19H7C5.34315 19 4 17.6569 4 16V8ZM17.0657 8.93431C17.3781 9.24673 17.3781 9.75327 17.0657 10.0657L13.4192 13.7121C12.9116 14.2198 12.0884 14.2198 11.5808 13.7121L10.5 12.6314L8.56569 14.5657C8.25327 14.8781 7.74673 14.8781 7.43431 14.5657C7.12189 14.2533 7.12189 13.7467 7.43431 13.4343L9.58076 11.2879C10.0884 10.7802 10.9116 10.7802 11.4192 11.2879L12.5 12.3686L15.9343 8.93431C16.2467 8.62189 16.7533 8.62189 17.0657 8.93431Z" fill="#FED45C"/>
    </symbol>

    <!-- filter -->
    <symbol id="filter" xmlns="http://www.w3.org/2000/svg" viewBox="0 0 16 16" fill="none">
        <rect x="1" y="4" width="14" height="1.7" rx="0.85" fill="#0B7636"/>
        <rect x="1" y="10" width="14" height="1.7" rx="0.85" fill="#0B7636"/>
        <rect x="6.75" y="8.75" width="4.5" height="4.5" rx="2.25" fill="white" stroke="#0B7636" stroke-width="1.5"/>
        <rect x="1.75" y="2.75" width="4.5" height="4.5" rx="2.25" fill="white" stroke="#0B7636" stroke-width="1.5"/>
    </symbol>
</svg>