<svg width="358" height="298" viewBox="0 0 358 298" fill="none" xmlns="http://www.w3.org/2000/svg">
<g opacity="0.6" clip-path="url(#clip0_583_47593)">
<path d="M334 141.369L35.7175 7L14 52.0963L176.216 286" fill="url(#paint0_linear_583_47593)" style="mix-blend-mode:screen"/>
<path d="M20.9148 46.4357L103.792 152.765" stroke="#FED45C" stroke-miterlimit="10"/>
<path d="M75.9308 51.4463L170.852 108.988" stroke="#FED45C" stroke-miterlimit="10"/>
<g style="mix-blend-mode:screen">
<path d="M31.8195 34.0273L96.3118 90.4868" stroke="#FED45C" stroke-miterlimit="10"/>
</g>
<path d="M62 33.4722L102.385 61.8174" stroke="#FED45C" stroke-miterlimit="10"/>
<path d="M36.8602 24.8066L73.3972 42.7293" stroke="#FED45C" stroke-miterlimit="10"/>
<path d="M58.7261 77.1086L70.7059 91.6595" stroke="#FED45C" stroke-miterlimit="10"/>
<path d="M71.5854 64.8809L101.518 86.4685" stroke="#FED45C" stroke-miterlimit="10"/>
<path d="M95.0262 100.159L133.499 135.929" stroke="#FED45C" stroke-miterlimit="10"/>
<path d="M62 29.5129L169.905 77.4248" stroke="#FED45C" stroke-miterlimit="10"/>
</g>
<circle cx="38" cy="38" r="36.5" stroke="url(#paint1_radial_583_47593)" stroke-width="3"/>
<circle cx="38" cy="38" r="30" fill="#0B7636"/>
<circle cx="38" cy="38" r="32" fill="url(#paint2_linear_583_47593)"/>
<path fill-rule="evenodd" clip-rule="evenodd" d="M55.0135 58.6698C54.5406 59.1928 53.7516 59.6206 53.3754 60.2063C53.0078 60.7783 53.7843 61.8721 54.1355 62.3136C54.6435 61.2135 55.1828 60.2051 55.6908 59.1038C55.5466 58.9896 55.1577 58.7839 55.0147 58.6698M54.9081 62.9721C55.9429 61.0768 56.994 59.386 58.0226 57.4042C58.0201 57.4193 58.0251 57.4293 58.0151 57.4556C57.9962 57.5033 58.0452 57.5083 57.8683 57.8833C56.9752 59.7836 56.0985 61.3954 55.1364 63.1703C54.3512 64.6203 54.1856 64.2929 54.9081 62.9708V62.9721ZM54.9106 57.3314C55.0611 57.5585 55.5177 57.5585 55.7899 57.4795C56.7745 57.1935 56.9514 55.6808 56.0094 55.302C56.1235 55.6218 56.5814 56.0019 56.18 56.7319C55.8275 57.3753 55.3308 57.3089 54.9106 57.3314ZM59.9981 56.8021C60.0985 56.6014 60.2565 56.412 60.0771 56.3117C59.4299 55.953 58.7814 55.5955 58.1342 55.2368C57.4343 56.6115 57.068 57.7253 56.0157 58.5042C56.969 58.3813 57.8545 56.3581 58.1518 56.407C58.4641 56.56 58.7764 56.7131 59.0887 56.8674C59.5453 57.1232 59.3559 57.1383 59.0009 58.2396C58.7764 58.9382 58.4955 59.2894 58.4729 59.3873C58.7676 59.1138 58.937 58.9018 59.1552 58.5118C59.4362 57.9423 59.7172 57.3728 59.9981 56.8034V56.8021ZM66.1242 52.6504C65.9937 52.3681 65.2825 51.6858 64.9526 51.4399C64.8009 51.7259 64.6491 52.0119 64.4973 52.2992C64.9865 52.5337 65.4769 52.7683 65.9661 53.0028C66.0188 52.8862 66.0715 52.7683 66.1229 52.6516L66.1242 52.6504ZM63.8652 50.6209C62.8655 49.8407 60.5325 49.0706 59.154 49.0894C58.7237 49.0944 58.1505 49.1408 57.7955 49.2261C58.8178 49.4494 58.9432 49.1358 60.7156 49.7981C62.1129 50.3198 62.429 50.7225 63.5315 51.5691C63.6431 51.2531 63.7548 50.9382 63.8652 50.6221V50.6209ZM66.3261 52.0295C66.641 51.5955 66.4064 51.5566 66.0966 51.2217C65.8821 50.9897 65.64 50.7137 65.3816 50.4917C65.2587 50.7789 65.1358 51.0649 65.0141 51.3521C65.4519 51.5779 65.8896 51.8037 66.3261 52.0295ZM64.2716 49.576C62.3637 48.5851 61.4431 47.9755 59.6055 48.0119C59.1903 48.0207 58.5594 48.0671 58.2446 48.18C59.3296 48.3305 59.7485 48.1712 61.1558 48.7131C62.641 49.285 62.8931 49.7291 63.9166 50.5055C64.0345 50.1957 64.1524 49.8859 64.2716 49.576ZM64.6654 48.5513C62.079 47.1791 61.3616 46.5782 58.6234 47.1276C58.9006 47.1929 59.6243 47.1665 60.0194 47.2217C62.059 47.5027 62.937 48.3405 64.3017 49.4682C64.4221 49.1634 64.5437 48.8573 64.6642 48.5525L64.6654 48.5513ZM66.7074 51.0599C66.9244 50.5494 66.8065 50.6422 66.4641 50.2371C66.2596 49.995 66.0326 49.699 65.7968 49.4907C65.6751 49.7843 65.5535 50.079 65.4318 50.3725C65.857 50.6021 66.2822 50.8304 66.7087 51.0599H66.7074ZM67.0461 50.0953C67.2443 49.5848 67.154 49.6563 66.8203 49.2562C66.6046 48.9978 66.424 48.7482 66.1844 48.5199C65.8432 49.3603 65.7454 49.3252 66.1304 49.556C66.4315 49.7378 66.7426 49.9172 67.0461 50.0941V50.0953ZM65.0605 47.5516C64.614 47.2029 62.3939 46.0502 61.8959 45.9548C61.349 45.8507 59.7234 45.793 59.2179 46.0677C59.6356 46.1367 60.1148 46.0891 60.6391 46.1706C62.4265 46.4478 63.4813 47.302 64.6943 48.4472C64.8159 48.1486 64.9376 47.8501 65.0593 47.5516H65.0605ZM67.3873 49.1145C67.588 48.5776 67.5014 48.6767 67.1615 48.2402C66.9771 48.0031 66.7865 47.7159 66.5707 47.5039C66.4628 47.7999 66.3537 48.096 66.2458 48.392C66.6259 48.6328 67.006 48.8736 67.386 49.1145H67.3873ZM55.6206 50.8755C55.879 50.3362 56.1386 49.4243 56.3844 48.7959C56.9589 47.3797 57.5334 45.9624 58.1079 44.5463C58.2998 44.0859 58.9194 42.7927 58.9834 42.4202C58.0464 43.8325 55.7259 49.4556 55.6206 50.8755ZM56.9188 50.6798C57.1897 50.133 57.4569 49.2085 57.6939 48.5889C58.2596 47.1841 58.8266 45.7805 59.3923 44.3757C59.5365 44.0257 59.6745 43.6908 59.82 43.3409C59.8928 43.1665 59.9705 42.9759 60.0483 42.7952C60.101 42.6384 60.1549 42.4817 60.2076 42.3249C60.2176 42.301 60.2113 42.291 60.2101 42.2747C59.4161 43.613 56.9313 49.5008 56.9188 50.6811V50.6798ZM65.0956 47.4387C65.6174 46.3311 65.5008 46.5143 64.9978 46.2396C63.6607 45.5121 62.8918 44.7858 61.2825 44.7758C60.7469 44.772 59.9166 44.8849 59.5152 45.0254C60.4183 45.1546 61.3754 44.8347 63.0285 45.7542C64.121 46.3625 64.3067 46.725 65.0969 47.4387H65.0956ZM67.7209 48.1123C67.9066 47.598 67.7811 47.5992 67.4964 47.2242C67.3057 46.9721 67.1289 46.6849 66.9156 46.4578C66.725 47.0034 66.7275 46.9395 66.661 47.4098C67.0147 47.6444 67.3685 47.879 67.7209 48.1123ZM65.9047 45.5158C65.1772 45.0555 63.3998 43.879 62.6711 43.756C61.9586 43.6356 60.3481 43.736 59.9203 43.9806C62.9069 43.9655 63.396 44.387 65.5196 46.4202C65.6488 46.1192 65.7767 45.8169 65.9059 45.5158H65.9047ZM65.9385 45.4368C66.3462 44.2327 66.6184 44.688 65.4895 43.9693C63.805 42.8956 63.1489 42.3788 61.4192 42.6761C61.1997 42.7137 60.6667 42.8053 60.4798 42.9081C60.7557 42.9483 61.0818 42.9106 61.4807 42.9119C61.995 42.9131 62.6284 42.9796 63.4287 43.3584C64.7984 44.0069 65.2135 44.8084 65.9398 45.4381L65.9385 45.4368ZM68.0458 47.0875C68.2001 46.4892 68.1399 46.6522 67.7811 46.143C67.598 45.8846 67.4011 45.5522 67.1979 45.339C67.0988 45.6087 66.9621 46.0778 66.9621 46.3562C67.3233 46.5996 67.6845 46.8429 68.0458 47.0875ZM63.228 41.6162C63.302 41.2775 63.2493 41.0028 62.9432 40.851C62.7363 40.7495 62.0263 40.6315 62.7275 40.9025C62.9708 40.9966 63.1126 41.1007 63.1025 41.5622C63.0963 41.8808 63.1364 42.0376 63.228 41.6162ZM38 6C55.6732 6 70 20.3267 70 38C70 39.8689 69.8382 41.699 69.5309 43.4788C69.2549 42.9056 68.8385 42.4127 68.3318 41.8959C68.4936 40.6203 68.5776 39.3195 68.5776 37.9987C68.5776 21.1107 54.8881 7.42114 38 7.42114C21.1119 7.42114 7.42239 21.1119 7.42239 38C7.42239 54.8881 21.1119 68.5776 38 68.5776C41.0894 68.5776 44.0709 68.1185 46.8818 67.2669C47.7109 67.0147 53.3114 65.2712 53.576 64.1173C53.63 63.8815 53.645 63.5854 53.6425 63.1941C53.2374 62.3725 52.4459 61.7103 52.397 60.8749C52.2828 58.9182 54.7513 58.434 54.582 57.7052C54.523 57.4544 54.084 57.2988 54.0502 56.5764C54.0288 56.106 54.217 55.5717 54.6259 55.2204C55.2505 54.6836 54.9219 55.2919 55.2919 54.1079C53.9674 53.122 54.0564 52.1649 54.3876 50.7626C54.513 50.2333 54.9081 50.4227 55.3459 50.0853C55.105 50.0627 54.8642 50.0401 54.6221 50.0176C54.6472 49.2763 55.2292 49.4707 55.7736 49.0756C55.4889 49.0593 55.2041 49.043 54.9194 49.0267C55.1289 48.5274 55.0699 48.5876 55.4801 48.402C55.6833 48.3104 56.0307 48.19 56.1888 48.0709C55.889 48.0596 55.5892 48.0495 55.2894 48.0383C55.6582 47.1715 55.8351 47.5955 56.5939 47.0624C56.2879 47.0561 55.9818 47.0499 55.6758 47.0436C56.0834 46.1631 56.2076 46.6134 56.9677 46.0803C56.6366 46.0301 56.3807 46.1229 56.0696 46.0652C56.4936 45.1684 56.4296 45.6927 57.3979 45.0693C57.1533 45.0492 56.6378 45.132 56.4848 45.0593C56.7055 44.5362 56.7407 44.5638 57.1358 44.3932C57.349 44.3017 57.7316 44.1537 57.8758 44.0546C57.6224 44.0458 57.0894 44.1298 56.895 44.0671C57.4343 43.1013 57.2976 43.6532 58.2897 43.0524C58.0088 43.0047 57.6776 43.1214 57.3478 43.0938C57.7203 42.4001 58.0589 41.6839 58.6322 41.2273C59.7723 40.3167 62.148 39.7209 63.6356 39.9856C64.8122 40.195 66.37 41.4694 67.1979 42.2759C68.2929 43.3421 68.8912 43.9969 68.8297 45.3703C68.7582 46.9407 67.0875 51.5453 66.4127 53.1759C65.8244 54.597 65.2411 55.9316 63.9956 56.5375C63.1414 56.9539 61.7943 57.1696 60.5262 56.8172C60.106 57.6137 59.7598 58.4265 59.2932 59.2117C58.5745 60.4233 57.9674 60.1022 57.5785 60.1235C57.275 60.5563 56.4045 62.3111 55.751 63.5804C55.4036 64.2565 55.159 64.7582 54.6083 65.2462C53.3013 66.4026 48.7331 68.195 47.2643 68.6391C44.3318 69.5246 41.2223 70.0013 38.0013 70.0013C20.3267 70 6 55.6732 6 38C6 20.3267 20.3267 6 38 6ZM65.6789 42.592C65.7278 41.7491 65.7579 41.5773 64.9188 41.0116C64.9125 41.3202 64.9802 41.5936 64.7934 41.9649C64.7545 41.7228 64.8247 41.5535 64.7494 41.2938C64.4873 40.387 63.1565 40.3017 62.8893 40.3857C64.4045 41.0154 63.603 41.2411 63.6118 42.133C65.7303 43.4161 64.9639 43.0938 66.3362 44.4158C66.3939 44.2891 66.4503 44.1637 66.508 44.037C66.2032 45.4933 65.8294 46.5732 65.2399 48.0746C64.9664 48.7695 63.7347 51.8388 63.2781 52.1988C63.3459 52.0157 63.4136 51.8325 63.4813 51.6494C63.011 51.3258 60.7796 50.429 60.2189 50.2998C59.1891 50.0627 58.2195 50.1756 57.3616 50.2734C57.9298 50.4277 58.6748 50.3612 59.4048 50.6033C59.0825 51.3986 58.9056 52.2139 58.2835 52.7821C58.814 52.693 59.4625 51.2204 59.7874 50.7024C59.9229 50.7689 60.0583 50.8366 60.1938 50.9031C59.2631 52.831 58.7551 53.5397 56.8347 53.847C56.6466 53.8771 56.4033 53.862 56.2603 53.9109C57.1634 54.3224 58.3086 54.0916 58.9018 53.8106C60.5074 53.0505 60.7131 52.4685 61.0806 52.0495C61.0229 52.5663 60.1223 53.4393 59.7573 53.7291C59.1264 54.2295 58.6384 54.4127 58.1455 54.5971C58.7476 54.7388 59.7623 54.4327 60.2139 54.2032C61.4569 53.5735 61.5234 53.1408 61.936 52.7658C61.6124 53.4393 61.0793 53.9574 60.5676 54.3274C59.7084 54.9483 59.376 54.8667 59.0348 55.0637C59.6946 55.1703 60.6516 54.9508 61.1609 54.7262C62.2897 54.227 62.6598 53.4832 62.9194 53.2173C62.8617 53.8307 61.64 54.9307 60.8736 55.2606C60.6077 55.3509 60.3418 55.4425 60.0759 55.5328C60.7645 55.6758 61.6036 55.4675 62.143 55.2267C63.3722 54.6798 63.3647 54.232 63.8539 53.7391C63.7849 54.2433 62.9871 55.0699 62.6134 55.3296C61.7692 55.9153 61.2775 55.8877 61.0555 56.0006C61.6676 56.0822 62.5669 55.9191 63.0411 55.7084C64.0019 55.2819 64.0771 54.9432 64.703 54.2371C64.4108 54.9294 63.9806 55.4889 63.4412 55.8426C62.5707 56.4133 62.2057 56.3581 61.8997 56.481C62.5481 56.5851 63.5453 56.2841 64.1035 55.9229C64.4886 55.6733 65.9574 53.8921 65.6701 53.4632C65.497 53.285 65.3252 53.1069 65.1521 52.9276C64.9652 52.7557 64.6955 52.5023 64.4584 52.3844C64.3631 52.5375 64.2678 52.6905 64.1725 52.8435C64.2076 52.5149 64.757 51.2192 64.9113 50.8065C65.1747 50.1016 65.4368 49.4368 65.7115 48.7344C66.2371 47.3697 66.7626 46.0063 67.2882 44.6416C67.2618 44.7934 67.2192 45.0793 67.2142 45.2462C67.5704 45.5108 67.9266 45.7742 68.2816 46.0389C68.4447 45.5397 68.4472 44.6052 68.2302 44.2866C68.1725 44.5187 68.116 44.7494 68.0583 44.9815C68.0044 44.6579 68.2176 43.8426 67.603 43.3772C67.5629 43.5992 67.5453 43.8714 67.4048 44.0897C67.5415 42.9997 67.1765 42.9457 66.8329 42.5281C66.7375 42.7212 66.7626 43.0248 66.6359 43.2781C66.5933 42.9257 66.6786 42.7764 66.5469 42.4177C66.4378 42.1229 66.1668 41.9335 65.8808 41.7052C65.857 41.9674 65.862 42.3637 65.6789 42.5908V42.592ZM51.381 49.5773C51.2731 48.9401 51.3246 48.4396 51.6381 47.963C51.9693 47.46 52.1348 47.3108 52.3794 46.7074C52.7219 45.8645 53.1007 44.3606 52.9138 43.3434C52.777 42.6008 52.4898 42.4867 51.9429 42.3161C51.3434 42.1304 50.3964 41.7529 49.9762 41.3101C49.8532 41.1809 49.8307 41.0731 49.7215 41.0768C49.5121 41.0831 48.5437 41.8658 48.2389 42.0665C46.641 43.1239 45.2123 42.9445 44.5475 43.3685C43.8852 43.7899 43.7197 44.8046 43.9116 45.5535C44.2013 46.6849 45.2023 47.3835 45.9511 47.9856C46.6573 48.5538 47.0938 49.3766 47.021 50.3512C47.4011 50.2182 47.8902 49.8043 48.1235 49.5911C49.1772 48.6265 49.6551 47.1828 49.7052 45.6362C49.8282 45.6526 49.9912 45.867 50.0602 45.9837C50.5833 46.873 50.0301 47.9918 50.651 48.91C50.7877 49.1119 51.1552 49.5096 51.3822 49.5773H51.381ZM53.0731 34.5883C53.0668 35.2794 52.5362 35.9028 52.2026 36.1725C51.6268 36.6391 51.445 36.846 51.0047 37.428C50.5168 38.158 49.9711 39.3371 50.3512 40.1549C50.6623 40.8247 51.2104 41.0191 51.8627 40.7168C52.619 40.3656 53.428 39.7372 53.63 38.8191C53.783 38.1254 53.6488 36.0157 53.4832 35.371C53.4243 35.1402 53.2361 34.641 53.0743 34.5883H53.0731ZM40.4597 27.5553C40.9276 27.8137 43.376 30.4879 43.9279 31.0486C43.8313 31.0348 42.3311 30.3173 42.1166 30.2145C41.8119 30.069 41.5171 29.9398 41.2135 29.7955C40.9388 29.6638 40.5889 29.9323 40.3982 30.1505C40.5726 30.1806 41.2487 30.2672 41.3565 30.3186C39.9204 30.7764 37.0467 31.4437 35.8489 30.3224C35.9354 30.1267 36.4835 29.7416 36.6177 29.5108C36.096 29.5108 35.5742 29.5083 35.0524 29.5071C35.1214 29.3315 35.8313 28.8975 36.0847 28.7821C38.0615 27.884 39.2029 28.4798 40.4597 28.9677C40.4597 28.4961 40.4597 28.0257 40.4597 27.5541V27.5553ZM33.9185 18.3437C34.5707 18.5971 35.9843 19.3484 36.8071 19.8501C37.1308 20.047 39.2982 21.4669 39.3509 21.6689C38.5268 21.6952 37.6237 21.8106 36.8799 22.0013C36.1135 22.1982 36.0445 22.5444 35.3747 22.3487C33.3415 21.7542 26.9244 20.3042 25.4218 21.9197C24.3794 23.0398 25.2299 25.0304 26.3324 25.5409C26.2358 25.2236 26.0502 24.9715 25.9574 24.5977C25.3754 22.2408 29.2148 23.3145 30.3562 23.6519C30.6886 23.7498 32.1035 24.1486 32.2841 24.3305C32.0006 24.619 31.7172 24.9087 31.4349 25.1972C30.3926 26.1342 29.0216 28.313 28.4748 29.576C27.9831 30.7124 27.6795 31.8125 27.5491 33.1696C27.4839 33.852 27.5127 34.6648 27.608 35.3258C27.677 35.7999 27.7736 36.2553 27.9191 36.7043C27.9605 36.8322 28.0345 36.9928 28.0608 37.1094C28.0169 37.0593 27.9617 37.0154 27.9066 36.9552C27.1364 36.121 26.6284 35.0085 26.35 33.8859C26.0865 32.8235 26.0176 31.608 26.1167 30.4955C26.1618 30.133 26.207 29.7705 26.2521 29.408C25.4807 30.6071 25.058 31.9204 24.905 33.339C24.7081 35.1665 24.9188 36.3456 25.5334 37.852C26.1957 39.4763 27.1151 40.6328 28.1261 41.8595C29.4933 43.5177 31.3597 44.7557 32.92 46.2935C33.7868 47.1477 34.6698 48.1198 35.4274 49.0618C37.0241 51.0486 37.8445 53.2085 37.8884 55.8539C37.8946 56.2502 37.8144 56.9276 37.8206 57.0881C38.1731 56.826 38.6685 56.0107 38.8454 55.6206C39.7121 53.6977 39.3032 51.2919 38.5356 49.4744C37.6513 47.381 35.8777 44.8285 34.2596 43.1753C33.3779 42.2182 32.3418 41.2612 31.5265 40.3079C30.9445 39.6293 30.449 38.9119 30.0803 38.0401C29.5321 36.7469 29.3139 35.3396 29.5384 33.7629C29.7115 32.5425 30.1769 31.1352 30.8429 30.133C30.7852 30.883 30.6497 32.0194 30.7212 33.0141C30.8416 34.6635 31.4475 36.1925 32.7068 37.1283C33.1483 37.4569 34.2045 37.9837 34.937 37.9511C34.3261 37.497 33.6651 37.2098 33.4117 35.9442C33.3628 35.6983 33.3114 35.1151 33.4117 34.8968C33.5158 35.0775 33.8633 35.4387 34.1769 35.6557C35.2995 36.4309 36.6491 36.1712 37.8294 35.7585C39.1076 35.312 40.0571 34.5607 41.3528 34.7814C41.6388 34.8304 42.2822 35.0235 42.4428 35.1841C41.8733 35.3383 41.0241 35.4374 40.0872 36.1286C39.5165 36.55 38.8316 37.3151 38.7789 38.0878C38.8667 38.0577 39.0649 37.926 39.1753 37.8658C40.1662 37.3239 41.7153 37.0492 42.8366 37.1383C41.7592 37.502 40.8197 37.8369 39.8426 38.4252C39.0812 38.883 38.0803 39.7272 37.7391 40.5889C38.3198 40.0583 39.4362 39.4487 40.17 39.154C41.1446 38.7639 42.2383 38.513 43.2342 38.5444C42.9997 38.6359 42.0263 38.9909 41.7755 39.0988C40.6817 39.5679 39.0699 40.6416 38.3926 41.6199C39.0963 41.1257 39.9755 40.6704 40.7783 40.3606C41.704 40.0019 42.7777 39.746 43.8915 39.8639C42.6159 40.1976 41.8294 40.4045 40.7294 41.3076C40.8021 41.8507 42.1982 42.0426 42.6497 42.0953C44.5049 42.3123 46.7112 42.2596 48.1988 41.0706C48.9828 40.4447 49.6952 39.5064 49.418 38.3487C49.0643 36.8674 47.2618 36.6767 46.2484 36.1348C45.7378 35.8627 45.1119 35.3383 45.1383 34.5469C45.265 34.661 45.3164 34.7789 45.5384 34.8467C46.1267 35.0285 46.3073 34.6221 46.5557 34.5419C47.1289 34.3562 47.8024 34.6146 48.3142 34.7676C49.408 35.095 50.8768 35.2079 51.8965 34.7589C52.8611 34.3336 52.7256 33.8645 52.0458 33.2261C50.8053 32.0596 48.3957 30.6284 47.5905 29.3452C47.4575 29.1333 47.2882 28.772 47.164 28.3819C46.6121 26.6422 46.9859 27.4023 47.5691 28.1737C47.9806 28.7168 47.8714 28.7206 48.5902 28.6742C49.2098 28.6341 49.4117 28.6027 49.8971 28.8862C51.5491 29.8482 50.1505 29.1834 50.1894 30.2371C50.2044 30.6297 50.4453 30.7476 50.7137 30.8918C51.1703 31.1377 51.2681 30.8943 51.2681 30.4528C51.2681 28.7996 51.1138 28.0947 50.1819 26.7977C49.349 25.6626 48.5161 24.5262 47.6833 23.391C47.6369 23.3283 45.7843 20.7495 45.6801 20.6805C45.2863 21.0994 44.4421 22.3474 44.1173 22.5833C43.9718 22.5105 43.7347 22.3261 43.5792 22.2183C41.566 20.8285 39.2982 19.6406 36.9376 18.9169C36.2728 18.7137 34.582 18.2709 33.9197 18.3424L33.9185 18.3437ZM34.498 59.9994C35.0448 59.4989 35.4287 57.9987 35.4951 57.2625C35.7924 53.9774 32.3556 50.0025 29.9937 47.8539C28.5086 46.4603 27.174 45.2261 25.862 43.6055C25.4657 43.0699 25.0981 42.5105 24.7106 41.9837C24.4998 43.9166 26.1355 46.4189 27.4199 47.8451C27.8815 48.3568 28.3305 48.8172 28.8109 49.3039C26.6497 48.9464 23.6294 47.1276 22.1029 45.6061C21.4481 44.9539 20.471 43.741 20.1361 42.883C20.121 43.7636 20.5663 45.1508 21.0467 45.9022C22.3612 47.958 25.6162 50.0765 27.5077 51.2957C29.2324 52.4083 30.5657 53.2712 32.0044 54.7024C33.0041 55.6971 33.9448 56.9087 34.3562 58.2759C34.5795 59.016 34.5093 59.2869 34.4992 59.9994H34.498ZM20.7858 29.5823C20.7758 28.1737 20.9915 26.7664 21.211 25.3929C21.2863 24.9501 21.3603 24.5061 21.4356 24.0633C21.285 24.3067 20.5663 25.6074 20.4321 25.8758C19.4475 27.8564 18.7952 30.2496 18.725 32.5588C18.6284 35.7372 19.5039 38.523 21.3202 41.0906C21.0731 38.1831 20.6378 36.4973 21.2349 33.3779C21.6011 31.4613 22.3048 29.6325 23.4487 28.0872C23.7937 27.6206 24.1135 27.2857 24.5124 26.8717C24.19 26.9257 23.6381 27.2142 23.371 27.3584C22.4026 27.884 21.0417 29.4594 20.7858 29.5823ZM15.0712 27.8514C15.1038 27.2844 15.6958 25.6475 15.9367 25.0919C16.6767 23.386 17.502 21.9875 18.6221 20.5688C19.0975 19.9668 19.751 19.1853 20.328 18.6623C19.7347 18.814 18.4791 19.8689 17.9661 20.3531C16.5262 21.7115 15.3371 23.3986 14.375 25.122C13.5836 26.5406 12.92 28.037 12.3343 29.5673C12.2302 29.8394 12.0684 30.2245 12.0019 30.5092C12.7582 30.4102 13.5158 30.3098 14.2722 30.2107C13.9975 31.4876 13.6225 33.063 13.4381 34.5732C13.043 37.8068 13.132 41.2311 14.1505 44.3481C14.3575 44.9802 15.1289 46.7526 15.6356 47.4964C15.396 46.5105 15.0812 45.2813 14.9207 44.1499C14.3851 40.3807 14.5732 36.7256 15.5428 33.0568C16.1072 30.9207 17.1207 28.8812 17.7027 27.5591C16.826 27.6569 15.9492 27.7535 15.0724 27.8514H15.0712ZM50.143 22.7375C50.1405 21.0956 51.1063 20.2214 52.392 19.7322C53.1508 19.4437 53.2988 19.5152 53.7692 19.3735C53.0066 18.8893 50.8002 18.3813 49.9348 18.3224C48.9627 18.2559 46.7074 18.6083 46.4578 19.7498C46.7777 20.2101 47.2092 20.9313 47.5666 21.3327C47.968 20.974 48.4095 20.5475 49.2349 20.5412C49.0568 20.7156 48.3104 21.5359 48.1436 22.1154L50.5883 25.2687C51.1 23.6457 52.096 22.587 53.9009 22.4327C53.4431 22.1756 52.5124 22.0853 51.9078 22.1543C51.0674 22.2509 50.8153 22.523 50.1405 22.7375H50.143ZM43.2618 16.1449C42.281 15.8664 41.7767 15.2468 40.338 15.0963C40.0796 15.0687 39.3459 15.0373 39.1314 15.1414C39.3659 15.2957 39.6005 15.45 39.8363 15.6055C41.2825 16.5876 42.8404 17.8984 43.5955 19.5089C43.6482 19.6231 43.7109 19.8702 43.7686 19.9392C44.0357 19.7146 44.7821 18.6322 44.9501 18.3462C47.3735 14.2333 42.9508 13.0091 39.45 12.6642C37.0568 12.4283 34.7814 11.958 38.4089 13.1007C39.7059 13.5096 40.9025 14.0263 41.9849 14.7802C42.4089 15.0762 43.0486 15.6394 43.2618 16.1449ZM23.5202 13.3315C23.7234 13.4255 24.3706 13.6199 24.7457 13.783C25.4406 14.0853 27.539 15.0862 27.8739 15.7811C25.2223 15.3672 24.259 14.8667 21.3628 15.6908C19.2543 16.2916 18.2534 17.1308 16.6177 18.4177C18.1104 17.8645 18.8015 17.4556 20.4823 17.2173C23.958 16.7269 27.9153 17.5735 31.026 19.1389C31.5428 19.3986 32.2101 19.7987 32.7193 20.0094C32.7068 19.2568 32.106 18.0715 31.7761 17.5622C31.396 16.9752 31.2606 16.831 30.8793 16.3531C30.7438 16.1838 30.291 15.7284 30.2709 15.677C32.0119 15.4864 33.7542 16.0232 35.238 16.7482C35.4901 16.8711 36.4045 17.4443 36.5249 17.4757C36.6805 15.4525 35.6356 13.9824 33.7918 13.1784C31.4776 12.17 27.9555 12.476 25.4845 12.9251C24.826 13.0442 24.1574 13.1646 23.519 13.3289L23.5202 13.3315Z" fill="white"/>
<path d="M101.592 32.8406V20.3295H95.5059L95.4299 22.9024C95.3791 23.9954 95.3031 25.0296 95.2016 26.0049C95.1171 26.9802 94.9819 27.8715 94.7959 28.6786C94.6099 29.469 94.3648 30.1416 94.0605 30.6966C93.7731 31.2515 93.4097 31.6466 92.9701 31.8821L88.5832 31.3271C89.1918 31.344 89.6905 31.1338 90.0793 30.6966C90.4851 30.2593 90.8063 29.6456 91.0429 28.8552C91.2796 28.048 91.4487 27.1064 91.5501 26.0301C91.6684 24.9539 91.753 23.7852 91.8037 22.524L92.0065 17H105.649V32.8406H101.592ZM88 38.3142L88.0254 31.3271H108.134V38.3142H104.33V34.6567H91.8037V38.3142H88Z" fill="white"/>
<path d="M115.185 24.1131H123.731V27.2913H115.185V24.1131ZM115.489 31.3776H125.151V34.6567H111.407V17H124.821V20.2791H115.489V31.3776Z" fill="white"/>
<path d="M141.148 17H145.256V34.6567H141.148V17ZM133.084 34.6567H128.976V17H133.084V34.6567ZM141.452 27.4174H132.78V23.9618H141.452V27.4174Z" fill="white"/>
<path d="M158.806 22.8015C160.953 22.8015 162.61 23.2807 163.777 24.2392C164.943 25.1809 165.526 26.6019 165.526 28.5021C165.526 30.52 164.875 32.0502 163.574 33.0928C162.289 34.1354 160.505 34.6567 158.223 34.6567H150.21V17H154.293V22.8015H158.806ZM157.995 31.6298C159.043 31.6298 159.871 31.3692 160.48 30.8479C161.089 30.3266 161.393 29.5699 161.393 28.5777C161.393 27.6024 161.089 26.9046 160.48 26.4842C159.888 26.047 159.06 25.8283 157.995 25.8283H154.293V31.6298H157.995Z" fill="white"/>
<path d="M168.993 34.6567V17H181.52L181.494 20.3295H172.112L173.05 19.3963L173.075 34.6567H168.993Z" fill="white"/>
<path d="M184.531 34.6567V17H188.614V28.5021L197.084 17H200.938V34.6567H196.881V23.1798L188.411 34.6567H184.531Z" fill="white"/>
<path d="M98.9477 42.1474H102.184V56.0587H98.9477V42.1474ZM92.5944 56.0587H89.3578V42.1474H92.5944V56.0587ZM99.1874 50.3551H92.3546V47.6325H99.1874V50.3551Z" fill="white"/>
<path d="M104.509 56.0587L110.743 42.1474H113.94L120.193 56.0587H116.796L111.682 43.777H112.961L107.826 56.0587H104.509ZM107.626 53.0777L108.485 50.6333H115.678L116.557 53.0777H107.626Z" fill="white"/>
<path d="M135.118 56.2972C134.039 56.2972 133.033 56.125 132.101 55.7805C131.182 55.4228 130.383 54.9193 129.703 54.2701C129.024 53.621 128.491 52.8591 128.105 51.9847C127.732 51.1103 127.546 50.1497 127.546 49.1031C127.546 48.0564 127.732 47.0959 128.105 46.2214C128.491 45.347 129.024 44.5852 129.703 43.936C130.396 43.2868 131.202 42.79 132.121 42.4455C133.04 42.0878 134.046 41.9089 135.138 41.9089C136.35 41.9089 137.442 42.1209 138.414 42.5449C139.4 42.9556 140.226 43.565 140.892 44.3732L138.814 46.2811C138.334 45.7379 137.802 45.3338 137.216 45.0688C136.63 44.7906 135.99 44.6515 135.298 44.6515C134.645 44.6515 134.046 44.7574 133.499 44.9694C132.953 45.1814 132.481 45.4861 132.081 45.8836C131.681 46.2811 131.368 46.7514 131.142 47.2946C130.929 47.8378 130.822 48.4406 130.822 49.1031C130.822 49.7655 130.929 50.3683 131.142 50.9116C131.368 51.4548 131.681 51.9251 132.081 52.3226C132.481 52.72 132.953 53.0247 133.499 53.2367C134.046 53.4487 134.645 53.5547 135.298 53.5547C135.99 53.5547 136.63 53.4222 137.216 53.1572C137.802 52.879 138.334 52.4617 138.814 51.9052L140.892 53.8131C140.226 54.6212 139.4 55.2373 138.414 55.6613C137.442 56.0852 136.343 56.2972 135.118 56.2972Z" fill="white"/>
<path d="M143.401 56.0587V42.1474H146.617V53.4355H152.851V42.1474H156.067V56.0587H143.401ZM155.088 59V55.3036L155.788 56.0587H152.851V53.4355H158.065V59H155.088Z" fill="white"/>
<path d="M163.576 47.7517H170.309V50.2557H163.576V47.7517ZM163.816 53.4752H171.428V56.0587H160.599V42.1474H171.168V44.7309H163.816V53.4752Z" fill="white"/>
<path d="M184.031 42.1474H187.268V56.0587H184.031V42.1474ZM177.678 56.0587H174.441V42.1474H177.678V56.0587ZM184.271 50.3551H177.438V47.6325H184.271V50.3551Z" fill="white"/>
<path d="M194.148 47.7517H200.881V50.2557H194.148V47.7517ZM194.388 53.4752H202V56.0587H191.171V42.1474H201.74V44.7309H194.388V53.4752Z" fill="white"/>
<defs>
<linearGradient id="paint0_linear_583_47593" x1="60.165" y1="-6.04639" x2="245.619" y2="229.456" gradientUnits="userSpaceOnUse">
<stop stop-color="#FF7A00"/>
<stop offset="0.4375" stop-color="#FECB38" stop-opacity="0.391304"/>
<stop offset="0.838542" stop-color="#FED45C" stop-opacity="0"/>
</linearGradient>
<radialGradient id="paint1_radial_583_47593" cx="0" cy="0" r="1" gradientUnits="userSpaceOnUse" gradientTransform="translate(-7.5 17.5) rotate(28.6389) scale(80.3275)">
<stop stop-color="white"/>
<stop offset="1" stop-color="white" stop-opacity="0"/>
</radialGradient>
<linearGradient id="paint2_linear_583_47593" x1="25.7333" y1="-44.2856" x2="79.7538" y2="-41.8495" gradientUnits="userSpaceOnUse">
<stop offset="0.0989583" stop-color="#0B7636"/>
<stop offset="0.359375" stop-color="#0A7B37"/>
<stop offset="1" stop-color="#00954D"/>
</linearGradient>
<clipPath id="clip0_583_47593">
<rect width="357.487" height="286.011" fill="white" transform="translate(0 11)"/>
</clipPath>
</defs>
</svg>
