<svg version="1.2" xmlns="http://www.w3.org/2000/svg" viewBox="0 0 316 267" width="316" height="267">
	<title>logo-svg</title>
	<defs>
		<clipPath clipPathUnits="userSpaceOnUse" id="cp1">
			<path d="m0 11h357.49v286.01h-357.49z"/>
		</clipPath>
		<linearGradient id="g1" x1="60.2" y1="-6" x2="245.6" y2="229.5" gradientUnits="userSpaceOnUse">
			<stop offset="0" stop-color="#ff7a00" stop-opacity="1"/>
			<stop offset=".438" stop-color="#fecb38" stop-opacity=".39"/>
			<stop offset=".839" stop-color="#fed45c" stop-opacity="0"/>
		</linearGradient>
		<radialGradient id="g2" cx="-7.5" cy="17.5" r="80.3" gradientUnits="userSpaceOnUse">
			<stop offset="0" stop-color="#ffffff" stop-opacity="1"/>
			<stop offset="1" stop-color="#ffffff" stop-opacity="0"/>
		</radialGradient>
		<linearGradient id="g3" x1="25.7" y1="-44.3" x2="79.8" y2="-41.8" gradientUnits="userSpaceOnUse">
			<stop offset=".099" stop-color="#0b7636"/>
			<stop offset=".359" stop-color="#0a7b37"/>
			<stop offset="1" stop-color="#00954d"/>
		</linearGradient>
	</defs>
	<style>
		.s0 { mix-blend-mode: screen;fill: url(#g1) } 
		.s1 { fill: none;stroke: #fed45c } 
		.s2 { mix-blend-mode: screen;fill: none;stroke: #fed45c } 
		.s3 { fill: none;stroke: url(#g2);stroke-width: 3 } 
		.s4 { fill: #0b7636 } 
		.s5 { fill: url(#g3) } 
		.s6 { fill: #ffffff } 
	</style>
	<g id="Clip-Path" clip-path="url(#cp1)">
		<g id="Layer" style="opacity: .6">
			<path id="Layer" class="s0" d="m334 141.4l-298.3-134.4-21.7 45.1 162.2 233.9"/>
			<path id="Layer" class="s1" d="m20.9 46.4l82.9 106.4"/>
			<path id="Layer" class="s1" d="m75.9 51.4l95 57.6"/>
			<g id="Layer">
				<path id="Layer" class="s2" d="m31.8 34l64.5 56.5"/>
			</g>
			<path id="Layer" class="s1" d="m62 33.5l40.4 28.3"/>
			<path id="Layer" class="s1" d="m36.9 24.8l36.5 17.9"/>
			<path id="Layer" class="s1" d="m58.7 77.1l12 14.6"/>
			<path id="Layer" class="s1" d="m71.6 64.9l29.9 21.6"/>
			<path id="Layer" class="s1" d="m95 100.2l38.5 35.7"/>
			<path id="Layer" class="s1" d="m62 29.5l107.9 47.9"/>
		</g>
	</g>
	<path id="Layer" class="s3" d="m38 74.5c-20.2 0-36.5-16.3-36.5-36.5 0-20.2 16.3-36.5 36.5-36.5 20.2 0 36.5 16.3 36.5 36.5 0 20.2-16.3 36.5-36.5 36.5z"/>
	<path id="Layer" class="s4" d="m38 68c-16.6 0-30-13.4-30-30 0-16.6 13.4-30 30-30 16.6 0 30 13.4 30 30 0 16.6-13.4 30-30 30z"/>
	<path id="Layer" class="s5" d="m38 70c-17.7 0-32-14.3-32-32 0-17.7 14.3-32 32-32 17.7 0 32 14.3 32 32 0 17.7-14.3 32-32 32z"/>
	<path id="Layer" fill-rule="evenodd" class="s6" d="m38 6c17.7 0 32 14.3 32 32q0 2.8-0.5 5.5c-0.2-0.6-0.7-1.1-1.2-1.6q0.3-1.9 0.3-3.9c0-16.9-13.7-30.6-30.6-30.6-16.9 0-30.6 13.7-30.6 30.6 0 16.9 13.7 30.6 30.6 30.6 3.1 0 6.1-0.5 8.9-1.3 0.8-0.3 6.4-2 6.7-3.2q0.1-0.3 0-0.9c-0.4-0.8-1.2-1.5-1.2-2.3-0.1-2 2.4-2.5 2.2-3.2-0.1-0.2-0.5-0.4-0.5-1.1-0.1-0.5 0.1-1 0.5-1.4 0.7-0.5 0.3 0.1 0.7-1.1-1.3-1-1.2-1.9-0.9-3.3 0.1-0.6 0.5-0.4 0.9-0.7q-0.3 0-0.7-0.1c0-0.7 0.6-0.5 1.2-0.9q-0.5 0-0.9-0.1c0.2-0.5 0.2-0.4 0.6-0.6 0.2-0.1 0.5-0.2 0.7-0.3q-0.5 0-0.9-0.1c0.4-0.8 0.5-0.4 1.3-0.9q-0.5 0-0.9-0.1c0.4-0.8 0.5-0.4 1.3-0.9-0.4-0.1-0.6 0-0.9 0 0.4-0.9 0.3-0.4 1.3-1-0.2-0.1-0.8 0-0.9 0 0.2-0.6 0.2-0.5 0.6-0.7 0.2-0.1 0.6-0.2 0.8-0.3-0.3-0.1-0.8 0-1 0 0.5-1 0.4-0.4 1.4-1-0.3-0.1-0.6 0-1 0 0.4-0.7 0.8-1.4 1.3-1.9 1.2-0.9 3.5-1.5 5-1.2 1.2 0.2 2.8 1.5 3.6 2.3 1.1 1 1.7 1.7 1.6 3.1 0 1.5-1.7 6.1-2.4 7.8-0.6 1.4-1.2 2.7-2.4 3.3-0.9 0.5-2.2 0.7-3.5 0.3-0.4 0.8-0.7 1.6-1.2 2.4-0.7 1.2-1.3 0.9-1.7 0.9-0.3 0.5-1.2 2.2-1.8 3.5-0.4 0.7-0.6 1.2-1.2 1.6-1.3 1.2-5.9 3-7.3 3.4-3 0.9-6.1 1.4-9.3 1.4-17.7 0-32-14.3-32-32 0-17.7 14.3-32 32-32zm16.9 57c-0.7 1.3-0.5 1.6 0.2 0.2 1-1.8 1.9-3.4 2.8-5.3 0.1-0.4 0.1-0.4 0.1-0.4q0-0.1 0-0.1c-1 2-2.1 3.7-3.1 5.6zm0-5.7c0.2 0.3 0.6 0.3 0.9 0.2 1-0.3 1.2-1.8 0.2-2.2 0.1 0.3 0.6 0.7 0.2 1.4-0.4 0.7-0.9 0.6-1.3 0.6zm5.1-0.5c0.1-0.2 0.3-0.4 0.1-0.5q-1-0.5-2-1.1c-0.7 1.4-1 2.5-2.1 3.3 1-0.1 1.9-2.1 2.2-2.1q0.4 0.2 0.9 0.5c0.4 0.2 0.3 0.2-0.1 1.3-0.2 0.7-0.5 1.1-0.5 1.2 0.3-0.3 0.4-0.5 0.7-0.9q0.4-0.8 0.8-1.7zm5.7-14.2q0 0 0 0 0 0 0 0zm-0.8-1.6c0 0.3 0.1 0.6-0.1 1 0-0.3 0-0.4-0.1-0.7-0.2-0.9-1.5-1-1.8-0.9 1.5 0.6 0.7 0.8 0.7 1.7 2.1 1.3 1.4 1 2.7 2.3q0.1-0.2 0.2-0.4c-0.3 1.5-0.7 2.6-1.3 4.1-0.2 0.7-1.5 3.7-1.9 4.1q0.1-0.3 0.2-0.5c-0.5-0.4-2.7-1.3-3.3-1.4-1-0.2-2-0.1-2.8 0 0.5 0.1 1.3 0.1 2 0.3-0.3 0.8-0.5 1.6-1.1 2.2 0.5-0.1 1.2-1.6 1.5-2.1q0.2 0.1 0.4 0.2c-0.9 1.9-1.4 2.6-3.4 3-0.2 0-0.4 0-0.5 0 0.9 0.4 2 0.2 2.6-0.1 1.6-0.7 1.8-1.3 2.2-1.7-0.1 0.5-1 1.3-1.3 1.6-0.7 0.5-1.2 0.7-1.7 0.9 0.6 0.1 1.7-0.2 2.1-0.4 1.3-0.6 1.3-1.1 1.7-1.4-0.3 0.6-0.8 1.2-1.3 1.5-0.9 0.7-1.2 0.6-1.6 0.8 0.7 0.1 1.7-0.1 2.2-0.4 1.1-0.5 1.5-1.2 1.7-1.5 0 0.6-1.3 1.7-2 2.1q-0.4 0.1-0.8 0.2c0.7 0.2 1.5 0 2-0.3 1.3-0.5 1.3-1 1.8-1.5-0.1 0.5-0.9 1.4-1.3 1.6-0.8 0.6-1.3 0.6-1.5 0.7 0.6 0.1 1.5-0.1 1.9-0.3 1-0.4 1.1-0.8 1.7-1.5-0.3 0.7-0.7 1.3-1.3 1.6-0.8 0.6-1.2 0.6-1.5 0.7 0.6 0.1 1.6-0.2 2.2-0.6 0.4-0.2 1.9-2 1.6-2.4q-0.3-0.3-0.5-0.6c-0.2-0.1-0.5-0.4-0.7-0.5q-0.2 0.2-0.3 0.4c0-0.3 0.6-1.6 0.7-2 0.3-0.7 0.5-1.4 0.8-2.1q0.8-2 1.6-4.1c0 0.2-0.1 0.5-0.1 0.6q0.5 0.4 1.1 0.8c0.1-0.5 0.1-1.4-0.1-1.7q-0.1 0.3-0.1 0.7c-0.1-0.3 0.1-1.2-0.5-1.6 0 0.2-0.1 0.5-0.2 0.7 0.1-1.1-0.2-1.2-0.6-1.6-0.1 0.2 0 0.5-0.2 0.8 0-0.4 0.1-0.5-0.1-0.9-0.1-0.3-0.3-0.5-0.6-0.7 0 0.3 0 0.7-0.2 0.9 0-0.8 0.1-1-0.8-1.6zm-1 9.6c-1-0.8-3.4-1.5-4.7-1.5-0.5 0-1 0-1.4 0.1 1 0.3 1.1-0.1 2.9 0.6 1.4 0.5 1.7 0.9 2.8 1.8q0.2-0.5 0.4-1zm2.4 1.4c0.3-0.4 0.1-0.4-0.2-0.8-0.2-0.2-0.5-0.5-0.7-0.7q-0.2 0.4-0.4 0.9 0.7 0.3 1.3 0.6zm-2-2.4c-1.9-1-2.9-1.6-4.7-1.6-0.4 0-1 0.1-1.4 0.2 1.1 0.1 1.5 0 3 0.5 1.4 0.6 1.7 1 2.7 1.8q0.2-0.5 0.4-0.9zm0.4-1c-2.6-1.4-3.3-2-6.1-1.5 0.3 0.1 1 0.1 1.4 0.1 2.1 0.3 2.9 1.1 4.3 2.3q0.2-0.5 0.4-0.9zm2 2.5q0 0 0 0 0 0 0 0zm-0.2-0.9c-0.2-0.2-0.5-0.5-0.7-0.7q-0.2 0.4-0.4 0.9 0.7 0.3 1.3 0.7c0.2-0.5 0.1-0.5-0.2-0.9zm0.5-0.1c0.2-0.5 0.2-0.4-0.2-0.8-0.2-0.3-0.4-0.5-0.6-0.8-0.4 0.9-0.5 0.8-0.1 1.1q0.5 0.2 0.9 0.5zm-1.9-2.5c-0.5-0.4-2.7-1.5-3.2-1.6-0.6-0.1-2.2-0.2-2.7 0.1 0.4 0 0.9 0 1.4 0.1 1.8 0.3 2.9 1.1 4.1 2.3q0.2-0.5 0.4-0.9zm2.3 1.5c0.2-0.5 0.1-0.4-0.2-0.9-0.2-0.2-0.4-0.5-0.6-0.7q-0.2 0.5-0.4 0.9 0.6 0.4 1.2 0.7zm-11.8 1.8c0.3-0.6 0.5-1.5 0.8-2.1q0.8-2.1 1.7-4.2c0.2-0.5 0.8-1.8 0.9-2.2-1 1.4-3.3 7.1-3.4 8.5zm1.3-0.2q0 0 0 0 0 0 0 0zm0.8-2.1q0.8-2.1 1.7-4.2 0.2-0.5 0.4-1.1 0.1-0.2 0.2-0.5 0.1-0.2 0.2-0.5 0 0 0 0c-0.8 1.3-3.3 7.2-3.3 8.4 0.3-0.6 0.6-1.5 0.8-2.1zm7.4-1.2q0 0 0 0 0 0 0 0zm-0.1-1.2c-1.3-0.7-2.1-1.4-3.7-1.4-0.6 0-1.4 0.1-1.8 0.2 0.9 0.2 1.9-0.2 3.5 0.8 1.1 0.6 1.3 0.9 2.1 1.6 0.5-1.1 0.4-0.9-0.1-1.2zm2.7 1.9c0.2-0.5 0.1-0.5-0.2-0.9-0.2-0.2-0.4-0.5-0.6-0.7-0.2 0.5-0.2 0.4-0.2 0.9q0.5 0.4 1 0.7zm-1.8-2.6c-0.7-0.4-2.5-1.6-3.2-1.7-0.7-0.2-2.4-0.1-2.8 0.2 3 0 3.5 0.4 5.6 2.4q0.2-0.4 0.4-0.9zm0-0.1c0.4-1.2 0.7-0.7-0.4-1.4-1.7-1.1-2.4-1.6-4.1-1.3-0.2 0-0.7 0.1-0.9 0.2 0.3 0.1 0.6 0 1 0 0.5 0 1.1 0.1 1.9 0.5 1.4 0.6 1.8 1.4 2.5 2zm2.1 1.7c0.2-0.6 0.1-0.4-0.2-1-0.2-0.2-0.4-0.5-0.6-0.8-0.1 0.3-0.2 0.8-0.2 1.1q0.5 0.3 1 0.7zm-4.8-5.5c0.1-0.3 0-0.6-0.3-0.7-0.2-0.1-0.9-0.3-0.2 0 0.3 0.1 0.4 0.2 0.4 0.7 0 0.3 0 0.4 0.1 0zm-8.2 17.1c-0.5 0.5-1.3 0.9-1.6 1.5-0.4 0.6 0.4 1.7 0.7 2.1 0.5-1.1 1.1-2.1 1.6-3.2-0.2-0.1-0.5-0.3-0.7-0.4zm11.1-6c-0.1-0.3-0.8-1-1.2-1.3q-0.2 0.5-0.4 0.9 0.7 0.4 1.5 0.7 0-0.2 0.1-0.3zm-14.7-3.1q0 0 0 0 0 0 0 0zm0 0c-0.3-0.1-0.6-0.5-0.8-0.7-0.6-0.9 0-2-0.5-2.9-0.1-0.1-0.3-0.3-0.4-0.4 0 1.6-0.5 3-1.6 4-0.2 0.2-0.7 0.6-1.1 0.8 0.1-1-0.3-1.8-1.1-2.4-0.7-0.6-1.7-1.3-2-2.4-0.2-0.8 0-1.8 0.6-2.2 0.7-0.4 2.1-0.3 3.7-1.3 0.3-0.2 1.3-1 1.5-1 0.1 0 0.1 0.1 0.3 0.2 0.4 0.5 1.3 0.8 1.9 1 0.6 0.2 0.9 0.3 1 1 0.2 1.1-0.2 2.6-0.5 3.4-0.3 0.6-0.4 0.8-0.8 1.3-0.3 0.4-0.3 0.9-0.2 1.6zm1.7-15c0.1 0 0.3 0.5 0.4 0.8 0.1 0.6 0.3 2.7 0.1 3.4-0.2 0.9-1 1.6-1.7 1.9-0.7 0.3-1.2 0.1-1.6-0.5-0.3-0.9 0.2-2 0.7-2.8 0.4-0.5 0.6-0.8 1.2-1.2 0.3-0.3 0.9-0.9 0.9-1.6zm-19.2-16.3c0.7 0 2.4 0.4 3 0.6 2.4 0.7 4.7 1.9 6.7 3.3 0.1 0.1 0.4 0.3 0.5 0.4 0.3-0.2 1.2-1.5 1.6-1.9 0.1 0.1 1.9 2.6 2 2.7q1.2 1.7 2.5 3.4c0.9 1.3 1.1 2 1.1 3.7 0 0.4-0.1 0.6-0.6 0.4-0.3-0.1-0.5-0.3-0.5-0.7-0.1-1 1.3-0.3-0.3-1.3-0.5-0.3-0.7-0.3-1.3-0.2-0.7 0-0.6 0-1-0.5-0.6-0.8-1-1.6-0.4 0.2 0.1 0.4 0.3 0.7 0.4 1 0.8 1.2 3.2 2.7 4.4 3.8 0.7 0.7 0.9 1.1-0.1 1.6-1 0.4-2.5 0.3-3.6 0-0.5-0.2-1.2-0.4-1.7-0.3-0.3 0.1-0.5 0.5-1.1 0.4-0.2-0.1-0.2-0.2-0.4-0.3 0 0.7 0.6 1.3 1.1 1.5 1.1 0.6 2.9 0.8 3.2 2.3 0.3 1.1-0.4 2.1-1.2 2.7-1.5 1.2-3.7 1.2-5.6 1-0.4-0.1-1.8-0.2-1.9-0.8 1.1-0.9 1.9-1.1 3.2-1.4-1.1-0.1-2.2 0.1-3.1 0.5-0.8 0.3-1.7 0.7-2.4 1.2 0.7-1 2.3-2 3.4-2.5 0.2-0.1 1.2-0.5 1.4-0.5-1-0.1-2.1 0.2-3 0.6-0.8 0.3-1.9 0.9-2.5 1.4 0.4-0.9 1.4-1.7 2.1-2.2 1-0.6 2-0.9 3-1.3-1.1 0-2.6 0.2-3.6 0.8-0.1 0-0.3 0.2-0.4 0.2 0-0.8 0.7-1.5 1.3-2 0.9-0.7 1.8-0.8 2.3-0.9-0.1-0.2-0.8-0.4-1.1-0.4-1.2-0.2-2.2 0.5-3.5 1-1.2 0.4-2.5 0.6-3.6-0.1-0.3-0.3-0.7-0.6-0.8-0.8-0.1 0.2 0 0.8 0 1.1 0.3 1.2 0.9 1.5 1.5 2-0.7 0-1.8-0.5-2.2-0.9-1.3-0.9-1.9-2.4-2-4.1-0.1-1 0.1-2.1 0.1-2.9-0.6 1-1.1 2.4-1.3 3.7-0.2 1.5 0 3 0.6 4.2 0.3 0.9 0.8 1.6 1.4 2.3 0.8 1 1.9 1.9 2.8 2.9 1.6 1.6 3.3 4.2 4.2 6.3 0.8 1.8 1.2 4.2 0.3 6.1-0.1 0.4-0.6 1.2-1 1.5 0-0.2 0.1-0.8 0.1-1.2-0.1-2.7-0.9-4.8-2.5-6.8-0.7-1-1.6-1.9-2.5-2.8-1.5-1.5-3.4-2.8-4.8-4.4-1-1.3-1.9-2.4-2.6-4-0.6-1.5-0.8-2.7-0.6-4.6 0.2-1.4 0.6-2.7 1.3-3.9q0 0.6-0.1 1.1c-0.1 1.1 0 2.3 0.2 3.4 0.3 1.1 0.8 2.2 1.6 3.1q0.1 0 0.2 0.1c-0.1-0.1-0.1-0.3-0.2-0.4q-0.2-0.7-0.3-1.4c-0.1-0.6-0.1-1.4-0.1-2.1 0.2-1.4 0.5-2.5 1-3.6 0.5-1.3 1.9-3.5 2.9-4.4q0.5-0.4 0.9-0.9c-0.2-0.1-1.6-0.5-1.9-0.6-1.2-0.4-5-1.5-4.4 0.9 0 0.4 0.2 0.6 0.3 0.9-1.1-0.5-1.9-2.5-0.9-3.6 1.5-1.6 7.9-0.1 10 0.5 0.6 0.2 0.7-0.2 1.5-0.4 0.7-0.2 1.6-0.3 2.4-0.3 0-0.2-2.2-1.6-2.5-1.8-0.8-0.5-2.2-1.3-2.9-1.6zm6.6 10.7c-1.3-0.5-2.4-1.1-4.4-0.2-0.3 0.1-1 0.5-1.1 0.7q0.8 0 1.6 0c-0.1 0.2-0.7 0.6-0.8 0.8 1.2 1.2 4.1 0.5 5.6 0-0.2 0-0.8-0.1-1-0.1 0.2-0.3 0.5-0.5 0.8-0.4q0.5 0.2 0.9 0.4c0.2 0.1 1.7 0.8 1.8 0.9-0.5-0.6-3-3.3-3.4-3.5q0 0.7 0 1.4zm-6 31q0 0 0 0 0 0 0 0zm0 0c0-0.7 0.1-1-0.1-1.7-0.5-1.4-1.4-2.6-2.4-3.6-1.4-1.4-2.8-2.3-4.5-3.4-1.9-1.2-5.1-3.3-6.5-5.4-0.4-0.7-0.9-2.1-0.9-3 0.4 0.8 1.3 2.1 2 2.7 1.5 1.5 4.5 3.4 6.7 3.7-0.5-0.5-0.9-0.9-1.4-1.4-1.3-1.5-2.9-4-2.7-5.9 0.4 0.5 0.8 1.1 1.2 1.6 1.3 1.6 2.6 2.9 4.1 4.3 2.4 2.1 5.8 6.1 5.5 9.4-0.1 0.7-0.5 2.2-1 2.7zm-11.1-32.6c0.2-0.2 0.8-0.5 1.1-0.5-0.4 0.4-0.7 0.7-1.1 1.2-1.1 1.5-1.8 3.4-2.2 5.3-0.6 3.1-0.1 4.8 0.1 7.7-1.8-2.6-2.7-5.4-2.6-8.5 0.1-2.3 0.7-4.7 1.7-6.7 0.2-0.3 0.9-1.6 1-1.8q-0.1 0.6-0.2 1.3c-0.2 1.4-0.4 2.8-0.4 4.2 0.2-0.1 1.6-1.7 2.6-2.2zm-8.3 0.5q1.3-0.2 2.6-0.3c-0.6 1.3-1.6 3.3-2.2 5.5-0.9 3.6-1.1 7.3-0.6 11.1 0.2 1.1 0.5 2.3 0.7 3.3-0.5-0.7-1.2-2.5-1.5-3.1-1-3.2-1.1-6.6-0.7-9.8 0.2-1.5 0.6-3.1 0.9-4.4q-1.2 0.2-2.3 0.3c0.1-0.3 0.2-0.7 0.3-0.9 0.6-1.6 1.3-3.1 2.1-4.5 0.9-1.7 2.1-3.4 3.6-4.7 0.5-0.5 1.7-1.6 2.3-1.7-0.6 0.5-1.2 1.3-1.7 1.9-1.1 1.4-1.9 2.8-2.7 4.5-0.2 0.6-0.8 2.2-0.8 2.8zm35-5.2q0 0 0 0 0 0 0 0zm0 0c0.7-0.2 1-0.4 1.8-0.5 0.6-0.1 1.5 0 2 0.2-1.8 0.2-2.8 1.3-3.3 2.9l-2.5-3.2c0.2-0.6 0.9-1.4 1.1-1.6-0.8 0.1-1.2 0.5-1.6 0.8-0.4-0.4-0.8-1.1-1.2-1.5 0.3-1.2 2.6-1.5 3.5-1.5 0.9 0.1 3.1 0.6 3.9 1.1-0.5 0.1-0.7 0.1-1.4 0.3-1.3 0.5-2.3 1.4-2.3 3zm-8.1-7.9c-1.1-0.8-2.3-1.3-3.6-1.7-3.6-1.1-1.4-0.7 1-0.4 3.5 0.3 8 1.5 5.5 5.7-0.1 0.2-0.9 1.3-1.1 1.5-0.1 0-0.2-0.3-0.2-0.4-0.8-1.6-2.3-2.9-3.8-3.9q-0.3-0.2-0.7-0.5c0.2-0.1 1 0 1.2 0 1.5 0.2 2 0.8 3 1.1-0.3-0.6-0.9-1.1-1.3-1.4zm-18.5-1.5q1-0.2 2-0.4c2.4-0.4 6-0.7 8.3 0.3 1.8 0.8 2.9 2.3 2.7 4.3-0.1 0-1-0.6-1.3-0.7-1.5-0.8-3.2-1.3-4.9-1.1 0 0 0.4 0.5 0.6 0.7 0.4 0.4 0.5 0.6 0.9 1.2 0.3 0.5 0.9 1.7 0.9 2.4-0.5-0.2-1.2-0.6-1.7-0.9-3.1-1.5-7.1-2.4-10.5-1.9-1.7 0.3-2.4 0.7-3.9 1.2 1.6-1.3 2.6-2.1 4.8-2.7 2.9-0.8 3.8-0.3 6.5 0.1-0.4-0.7-2.5-1.7-3.2-2-0.3-0.2-1-0.4-1.2-0.5z"/>
	<path id="Layer" class="s6" d="m101.6 32.8v-12.5h-6.1l-0.1 2.6q0 1.6-0.2 3.1-0.1 1.5-0.4 2.7-0.3 1.2-0.7 2-0.5 0.8-1.1 1.2l-4.4-0.6q0.9 0.1 1.5-0.6 0.6-0.7 0.9-1.8 0.4-1.3 0.6-2.9 0.1-1.6 0.2-3.5l0.2-5.5h13.6v15.8zm-13.5 5.5v-7h20.1v7h-3.8v-3.6h-12.5v3.6z"/>
	<path id="Layer" fill-rule="evenodd" class="s6" d="m115.5 31.4h9.7v3.3h-13.8v-17.7h13.4v3.3h-9.3v3.8h-0.3v3.2h0.3zm8.2-4.1v-3.2h-8.2v3.2z"/>
	<path id="Layer" class="s6" d="m141.1 17h4.2v17.7h-4.2zm-8 17.6h-4.1v-17.6h4.1zm8.4-7.3h-8.7v-3.4h8.7z"/>
	<path id="Layer" fill-rule="evenodd" class="s6" d="m158.8 22.8q3.2 0 5 1.4 1.7 1.5 1.7 4.3 0 3-1.9 4.6-2 1.6-5.4 1.6h-8v-17.7h4.1v5.8zm-0.8 8.8q1.6 0 2.5-0.8 0.9-0.7 0.9-2.2 0-1.5-0.9-2.1-0.9-0.7-2.5-0.7h-3.7v5.8z"/>
	<path id="Layer" class="s6" d="m169 34.7v-17.7h12.5v3.3h-9.4l1-0.9v15.3z"/>
	<path id="Layer" class="s6" d="m184.5 34.7v-17.7h4.1v11.5l8.5-11.5h3.8v17.7h-4v-11.5l-8.5 11.5z"/>
	<path id="Layer" class="s6" d="m98.9 42.1h3.3v14h-3.3zm-6.3 13.9h-3.2v-13.9h3.2zm6.6-5.7h-6.8v-2.8h6.8z"/>
	<path id="Layer" fill-rule="evenodd" class="s6" d="m104.5 56.1l6.2-14h3.2l6.3 14h-3.4l-1.2-3h1l-0.9-2.5h-1.2l-2.2-5.3-2.2 5.3h-1.6l-0.9 2.5h1.5l-1.3 3zm7.8-10.8l0.7-1.5h-1.3zm3.2 7.7l-1-2.4h-4.4l-1 2.4z"/>
	<path id="Layer" class="s6" d="m135.1 56.3q-1.6 0-3-0.5-1.4-0.6-2.4-1.5-1-1-1.6-2.3-0.6-1.3-0.6-2.9 0-1.6 0.6-2.9 0.6-1.3 1.6-2.3 1-0.9 2.4-1.5 1.4-0.5 3-0.5 1.9 0 3.3 0.6 1.5 0.7 2.5 1.9l-2.1 1.9q-0.7-0.8-1.6-1.2-0.9-0.4-1.9-0.4-1 0-1.8 0.3-0.8 0.3-1.4 0.9-0.6 0.6-1 1.4-0.3 0.8-0.3 1.8 0 1 0.3 1.8 0.4 0.8 1 1.4 0.6 0.6 1.4 0.9 0.8 0.4 1.8 0.4 1 0 1.9-0.4 0.9-0.5 1.6-1.3l2.1 1.9q-1 1.2-2.5 1.9-1.4 0.6-3.3 0.6z"/>
	<path id="Layer" class="s6" d="m143.4 56.1v-14h3.2v11.3h6.3v-11.3h3.2v14zm11.7 2.9v-3.7l0.7 0.8h-3v-2.7h5.2v5.6z"/>
	<path id="Layer" fill-rule="evenodd" class="s6" d="m163.8 53.5h7.6v2.6h-10.8v-14h10.6v2.6h-7.4v3.1h-0.2v2.5h0.2zm6.5-3.3v-2.5h-6.5v2.5z"/>
	<path id="Layer" class="s6" d="m184 42.1h3.3v14h-3.3zm-6.3 13.9h-3.3v-13.9h3.3zm6.6-5.7h-6.9v-2.8h6.9z"/>
	<path id="Layer" fill-rule="evenodd" class="s6" d="m194.4 53.5h7.6v2.6h-10.8v-14h10.5v2.6h-7.3v3.1h-0.3v2.5h0.3zm6.5-3.3v-2.5h-6.5v2.5z"/>
</svg>