<svg width="29" height="26" viewBox="0 0 29 26" fill="none" xmlns="http://www.w3.org/2000/svg">
<g filter="url(#filter0_d_307_2)">
<path fill-rule="evenodd" clip-rule="evenodd" d="M2 20.7778C2 20.4536 2.11972 20.1427 2.33283 19.9135C2.54594 19.6843 2.83498 19.5556 3.13636 19.5556H25.8636C26.165 19.5556 26.4541 19.6843 26.6672 19.9135C26.8803 20.1427 27 20.4536 27 20.7778C27 21.1019 26.8803 21.4128 26.6672 21.642C26.4541 21.8712 26.165 22 25.8636 22H3.13636C2.83498 22 2.54594 21.8712 2.33283 21.642C2.11972 21.4128 2 21.1019 2 20.7778ZM2 11C2 10.6758 2.11972 10.365 2.33283 10.1358C2.54594 9.90655 2.83498 9.77778 3.13636 9.77778H25.8636C26.165 9.77778 26.4541 9.90655 26.6672 10.1358C26.8803 10.365 27 10.6758 27 11C27 11.3242 26.8803 11.635 26.6672 11.8642C26.4541 12.0935 26.165 12.2222 25.8636 12.2222H3.13636C2.83498 12.2222 2.54594 12.0935 2.33283 11.8642C2.11972 11.635 2 11.3242 2 11ZM2 1.22222C2 0.898069 2.11972 0.587192 2.33283 0.357981C2.54594 0.12877 2.83498 0 3.13636 0H25.8636C26.165 0 26.4541 0.12877 26.6672 0.357981C26.8803 0.587192 27 0.898069 27 1.22222C27 1.54638 26.8803 1.85725 26.6672 2.08646C26.4541 2.31567 26.165 2.44444 25.8636 2.44444H3.13636C2.83498 2.44444 2.54594 2.31567 2.33283 2.08646C2.11972 1.85725 2 1.54638 2 1.22222Z" fill="#CDBEA1"/>
</g>
<defs>
<filter id="filter0_d_307_2" x="0" y="0" width="29" height="26" filterUnits="userSpaceOnUse" color-interpolation-filters="sRGB">
<feFlood flood-opacity="0" result="BackgroundImageFix"/>
<feColorMatrix in="SourceAlpha" type="matrix" values="0 0 0 0 0 0 0 0 0 0 0 0 0 0 0 0 0 0 127 0" result="hardAlpha"/>
<feOffset dy="2"/>
<feGaussianBlur stdDeviation="1"/>
<feComposite in2="hardAlpha" operator="out"/>
<feColorMatrix type="matrix" values="0 0 0 0 0.803922 0 0 0 0 0.745098 0 0 0 0 0.631373 0 0 0 0.3 0"/>
<feBlend mode="normal" in2="BackgroundImageFix" result="effect1_dropShadow_307_2"/>
<feBlend mode="normal" in="SourceGraphic" in2="effect1_dropShadow_307_2" result="shape"/>
</filter>
</defs>
</svg>
