<svg width="49" height="49" viewBox="0 0 49 49" fill="none" xmlns="http://www.w3.org/2000/svg">
<path d="M36 25C36 25 31.875 17.4375 25 17.4375C18.125 17.4375 14 25 14 25C14 25 18.125 32.5625 25 32.5625C31.875 32.5625 36 25 36 25ZM15.6129 25C16.2777 23.9895 17.0424 23.0484 17.8954 22.1909C19.665 20.4185 22.085 18.8125 25 18.8125C27.915 18.8125 30.3336 20.4185 32.106 22.1909C32.959 23.0484 33.7237 23.9895 34.3885 25C34.3088 25.1196 34.2208 25.2516 34.1204 25.396C33.6597 26.056 32.9791 26.936 32.106 27.8091C30.3336 29.5815 27.9136 31.1875 25 31.1875C22.085 31.1875 19.6664 29.5815 17.894 27.8091C17.041 26.9516 16.2763 26.0104 15.6115 25H15.6129Z" fill="#95CABE"/>
<path d="M25 21.5625C24.0883 21.5625 23.214 21.9247 22.5693 22.5693C21.9247 23.214 21.5625 24.0883 21.5625 25C21.5625 25.9117 21.9247 26.786 22.5693 27.4307C23.214 28.0753 24.0883 28.4375 25 28.4375C25.9117 28.4375 26.786 28.0753 27.4307 27.4307C28.0753 26.786 28.4375 25.9117 28.4375 25C28.4375 24.0883 28.0753 23.214 27.4307 22.5693C26.786 21.9247 25.9117 21.5625 25 21.5625ZM20.1875 25C20.1875 23.7236 20.6945 22.4996 21.597 21.597C22.4996 20.6945 23.7236 20.1875 25 20.1875C26.2764 20.1875 27.5004 20.6945 28.403 21.597C29.3055 22.4996 29.8125 23.7236 29.8125 25C29.8125 26.2764 29.3055 27.5004 28.403 28.403C27.5004 29.3055 26.2764 29.8125 25 29.8125C23.7236 29.8125 22.4996 29.3055 21.597 28.403C20.6945 27.5004 20.1875 26.2764 20.1875 25Z" fill="#95CABE"/>
</svg>
