<svg width="41" height="41" viewBox="0 0 41 41" fill="none" xmlns="http://www.w3.org/2000/svg">
<g filter="url(#filter0_d_71_4370)">
<circle cx="18.5" cy="18.5" r="13.5" fill="white"/>
</g>
<g clip-path="url(#clip0_71_4370)">
<path d="M23.1461 10.1459C23.1925 10.0994 23.2477 10.0624 23.3084 10.0372C23.3692 10.012 23.4343 9.99902 23.5001 9.99902C23.5658 9.99902 23.6309 10.012 23.6917 10.0372C23.7524 10.0624 23.8076 10.0994 23.8541 10.1459L26.8541 13.1459C26.9006 13.1924 26.9376 13.2475 26.9628 13.3083C26.988 13.369 27.0009 13.4341 27.0009 13.4999C27.0009 13.5657 26.988 13.6308 26.9628 13.6916C26.9376 13.7523 26.9006 13.8075 26.8541 13.8539L16.8541 23.8539C16.8061 23.9016 16.7489 23.939 16.686 23.9639L11.6861 25.9639C11.5952 26.0003 11.4956 26.0092 11.3998 25.9895C11.3039 25.9699 11.2159 25.9225 11.1467 25.8533C11.0775 25.7841 11.0301 25.6961 11.0104 25.6002C10.9908 25.5043 10.9997 25.4048 11.0361 25.3139L13.0361 20.3139C13.061 20.2511 13.0984 20.1939 13.1461 20.1459L23.1461 10.1459ZM22.2071 12.4999L24.5001 14.7929L25.7931 13.4999L23.5001 11.2069L22.2071 12.4999ZM23.7931 15.4999L21.5001 13.2069L15.0001 19.7069V19.9999H15.5001C15.6327 19.9999 15.7598 20.0526 15.8536 20.1464C15.9474 20.2401 16.0001 20.3673 16.0001 20.4999V20.9999H16.5001C16.6327 20.9999 16.7598 21.0526 16.8536 21.1464C16.9474 21.2401 17.0001 21.3673 17.0001 21.4999V21.9999H17.2931L23.7931 15.4999ZM14.0321 20.6749L13.9261 20.7809L12.3981 24.6019L16.219 23.0739L16.325 22.9679C16.2297 22.9323 16.1474 22.8684 16.0894 22.7847C16.0313 22.7011 16.0001 22.6017 16.0001 22.4999V21.9999H15.5001C15.3674 21.9999 15.2403 21.9472 15.1465 21.8535C15.0527 21.7597 15.0001 21.6325 15.0001 21.4999V20.9999H14.5001C14.3982 20.9998 14.2989 20.9687 14.2152 20.9106C14.1316 20.8525 14.0677 20.7703 14.0321 20.6749Z" fill="#535353"/>
</g>
<defs>
<filter id="filter0_d_71_4370" x="0" y="0" width="41" height="41" filterUnits="userSpaceOnUse" color-interpolation-filters="sRGB">
<feFlood flood-opacity="0" result="BackgroundImageFix"/>
<feColorMatrix in="SourceAlpha" type="matrix" values="0 0 0 0 0 0 0 0 0 0 0 0 0 0 0 0 0 0 127 0" result="hardAlpha"/>
<feOffset dx="2" dy="2"/>
<feGaussianBlur stdDeviation="3.5"/>
<feComposite in2="hardAlpha" operator="out"/>
<feColorMatrix type="matrix" values="0 0 0 0 0 0 0 0 0 0 0 0 0 0 0 0 0 0 0.07 0"/>
<feBlend mode="normal" in2="BackgroundImageFix" result="effect1_dropShadow_71_4370"/>
<feBlend mode="normal" in="SourceGraphic" in2="effect1_dropShadow_71_4370" result="shape"/>
</filter>
<clipPath id="clip0_71_4370">
<rect width="16" height="16" fill="white" transform="translate(11 10)"/>
</clipPath>
</defs>
</svg>
