<svg width="16" height="16" viewBox="0 0 16 16" fill="none" xmlns="http://www.w3.org/2000/svg">
<path fill-rule="evenodd" clip-rule="evenodd" d="M9.06625 5.2C9.06625 3.43269 7.63356 2 5.86625 2C4.09894 2 2.66625 3.43269 2.66625 5.2C2.66625 6.96731 4.09894 8.4 5.86625 8.4C7.63356 8.4 9.06625 6.96731 9.06625 5.2ZM3.123 9.79976C2.23473 9.79976 1.39213 10.1934 0.82213 10.8747L0.351458 11.4372C-0.465514 12.4137 0.228755 13.8998 1.5019 13.8998H10.517C11.7902 13.8998 12.4845 12.4137 11.6675 11.4372L11.1968 10.8747C10.6268 10.1934 9.7842 9.79976 8.89593 9.79976H3.123ZM8.67562 2.31233C9.49313 3.12709 9.99903 4.25431 9.99903 5.49969C9.99903 6.52254 9.65776 7.46569 9.08288 8.22148C10.4103 7.91205 11.3991 6.72138 11.3991 5.29976C11.3991 3.73613 10.2029 2.4519 8.67562 2.31233ZM12.6127 13.7998C12.9505 13.0667 12.9423 12.1709 12.4358 11.3928L11.916 10.5943C11.7118 10.2806 11.4542 10.0128 11.1595 9.79977H11.2605C12.1508 9.79977 12.9952 10.1952 13.5652 10.8792L13.9487 11.3395C14.7629 12.3165 14.0681 13.7998 12.7964 13.7998H12.6127ZM12.3654 5.4997C12.3654 4.63526 12.1216 3.82775 11.6991 3.14215C12.6699 3.48545 13.3655 4.41139 13.3655 5.49977C13.3655 6.5882 12.6699 7.51417 11.699 7.85744C12.1216 7.17179 12.3654 6.36422 12.3654 5.4997ZM14.6358 11.3929C15.1457 12.1761 15.1507 13.0786 14.806 13.8143C15.72 13.4914 16.1373 12.3207 15.4825 11.4789L15.1551 11.058C14.764 10.5551 14.2282 10.1959 13.6304 10.0207C13.8136 10.1888 13.9771 10.3809 14.116 10.5943L14.6358 11.3929Z" fill="#08170E"/>
</svg>
