<svg width="16" height="16" viewBox="0 0 16 16" fill="none" xmlns="http://www.w3.org/2000/svg">
<path fill-rule="evenodd" clip-rule="evenodd" d="M13.059 10.2719L13.0589 10.2719L13.0589 10.2719C11.7987 9.69607 10.6044 9.15034 8.46018 8.95323C7.92503 8.90404 7.49902 8.46669 7.49902 7.92929V4.07049C7.49902 3.53309 7.92503 3.09574 8.46017 3.04655C10.6044 2.84943 11.7987 2.3037 13.0589 1.72785L13.059 1.72779C13.1392 1.69115 13.2197 1.65439 13.3007 1.61758C13.8449 1.37023 14.499 1.7508 14.499 2.34863V9.65111C14.499 10.249 13.845 10.6296 13.3007 10.3822C13.2197 10.3454 13.1392 10.3086 13.059 10.2719ZM4.69779 14.9698C4.67136 14.9571 4.66068 14.9453 4.65385 14.9322C4.65385 14.9322 3.49902 14.3754 3.49902 12.5021C3.49902 10.6288 3.50242 10.0043 3.50242 10.0043H6.59448C6.65437 10.0043 6.7138 10.0029 6.7727 9.99985C6.80646 11.7202 7.11944 13.1138 7.47557 14.1569C7.53373 14.3272 7.48527 14.5565 7.31282 14.7505C7.14348 14.941 6.94919 14.9999 6.81355 14.9999H4.85686C4.78183 14.9999 4.72804 14.9842 4.69779 14.9698ZM1.49902 5.99985C1.49902 4.343 2.74268 2.99985 4.2768 2.99985H6.37998C6.44572 2.99985 6.49902 3.05742 6.49902 3.12842V8.87129C6.49902 8.94229 6.44572 8.99985 6.37998 8.99985H4.2768C2.74268 8.99985 1.49902 7.65671 1.49902 5.99985Z" fill="#08170E"/>
</svg>
